<svg width="149" height="147" viewBox="0 0 149 147" fill="none" xmlns="http://www.w3.org/2000/svg">
<path fill-rule="evenodd" clip-rule="evenodd" d="M7.65462 2.02396C13.9138 -2.36467 26.7559 1.89552 39.1204 5.82012C51.8037 9.84595 64.6408 12.7199 79.8865 24.9511C95.2676 37.2911 108.223 54.4183 119.542 70.3407C130.344 85.5363 138.156 100.058 142.511 113.045C147.057 126.601 152.095 141.964 144.736 145.473C137.513 148.916 119.596 135.881 106.264 130.324C94.4033 125.38 84.3858 125.79 71.0353 114.753C57.719 103.745 49.7158 88.3544 38.8688 74.6087C26.9178 59.4641 10.2724 44.0458 4.32543 30.2168C-1.89692 15.7474 1.17663 6.56604 7.65462 2.02396Z" fill="#60A5FA"/>
</svg>
