<svg width="1460" height="1068" viewBox="0 0 1460 1068" fill="none" xmlns="http://www.w3.org/2000/svg">
<path opacity="0.1" d="M954.298 1C872.798 124.5 633.798 142.5 623.298 293C608.33 507.533 515.798 441 406.798 550C287.298 669.5 441.798 731.5 123.798 747C76.9643 750 -12.8023 765.9 2.79766 805.5" stroke="#BFDBFE" stroke-opacity="0.6" stroke-width="2"/>
<path d="M1458 183.5C1466 324 1044 251 1070 479.5C1094.31 693.175 805.701 488.5 845.499 682C879.545 847.534 621.203 716.5 508 991C490.202 1094 350.899 1027.9 366.499 1067.5" stroke="#BFDBFE" stroke-opacity="0.6" stroke-width="2"/>
<path opacity="0.2" d="M978.271 9.69049C901.033 134 653.319 147.667 644.557 301.881C631.46 516.373 529.59 443.262 427.676 556.286C315.488 677.978 450.329 730.786 142.081 758.619C96.6302 766.381 4.5047 778.376 20.1047 817.976" stroke="#BFDBFE" stroke-opacity="0.6" stroke-width="2"/>
<path opacity="0.3" d="M1002.25 18.381C929.271 143.5 672.842 152.833 665.818 310.762C654.592 525.213 543.385 445.524 448.556 562.571C343.68 686.456 458.861 730.071 160.366 770.238C116.298 782.762 21.8134 790.852 37.4134 830.452" stroke="#BFDBFE" stroke-opacity="0.6" stroke-width="2"/>
<path opacity="0.4" d="M1026.22 27.0714C957.509 153 692.367 158 687.081 319.643C677.725 534.053 557.181 447.786 469.438 568.857C371.873 694.933 467.396 729.357 178.652 781.857C135.967 799.143 39.1237 803.329 54.7237 842.929" stroke="#BFDBFE" stroke-opacity="0.6" stroke-width="2"/>
<path opacity="0.5" d="M1050.2 35.7619C985.75 162.5 711.893 163.167 708.345 328.524C700.86 542.893 570.979 450.048 490.321 575.143C400.068 703.411 475.931 728.643 196.94 793.476C155.638 815.524 56.4354 815.805 72.0354 855.405" stroke="#BFDBFE" stroke-opacity="0.6" stroke-width="2"/>
<path opacity="0.6" d="M1074.18 44.4524C1013.99 172 731.421 168.333 729.612 337.405C723.997 551.733 584.778 452.31 511.207 581.429C428.265 711.889 484.469 727.929 215.231 805.095C175.31 831.905 73.7495 828.281 89.3495 867.881" stroke="#BFDBFE" stroke-opacity="0.6" stroke-width="2"/>
<path opacity="0.7" d="M1098.16 53.1428C1042.24 181.5 750.95 173.5 750.878 346.286C747.134 560.573 598.579 454.571 532.092 587.714C456.463 720.367 493.008 727.214 233.521 816.714C194.984 848.286 91.0639 840.757 106.664 880.357" stroke="#BFDBFE" stroke-opacity="0.6" stroke-width="2"/>
<path opacity="0.8" d="M1122.15 61.8334C1070.48 191 770.48 178.667 772.147 355.167C770.273 569.414 612.38 456.833 552.979 594C484.662 728.845 501.547 726.5 251.813 828.333C214.658 864.667 108.38 853.233 123.98 892.833" stroke="#BFDBFE" stroke-opacity="0.6" stroke-width="2"/>
<path opacity="0.9" d="M1146.13 70.5238C1098.73 200.5 790.011 183.833 793.416 364.048C793.413 578.254 626.183 459.095 573.868 600.286C512.861 737.322 510.088 725.786 270.106 839.952C234.334 881.048 125.696 865.71 141.296 905.31" stroke="#BFDBFE" stroke-opacity="0.6" stroke-width="2"/>
<path d="M1170.11 79.2143C1126.97 210 809.543 189 814.686 372.929C816.553 587.094 639.986 461.357 594.757 606.571C541.063 745.8 518.63 725.071 288.4 851.571C254.011 897.429 143.014 878.186 158.614 917.786" stroke="#BFDBFE" stroke-opacity="0.6" stroke-width="2"/>
<path d="M1194.1 87.9048C1155.22 219.5 829.077 194.167 835.958 381.81C839.695 595.934 653.791 463.619 615.647 612.857C569.265 754.278 527.173 724.357 306.696 863.19C273.689 913.81 160.333 890.662 175.933 930.262" stroke="#BFDBFE" stroke-opacity="0.6" stroke-width="2"/>
<path d="M1218.09 96.5952C1183.47 229 848.611 199.333 857.23 390.69C862.838 604.774 667.597 465.881 636.539 619.143C597.468 762.756 535.717 723.643 324.992 874.809C293.367 930.19 177.653 903.138 193.253 942.738" stroke="#BFDBFE" stroke-opacity="0.6" stroke-width="2"/>
<path d="M1242.08 105.286C1211.72 238.5 868.147 204.5 878.504 399.571C885.983 613.614 681.405 468.143 657.432 625.429C625.673 771.233 544.263 722.929 343.29 886.429C313.048 946.571 194.975 915.614 210.575 955.214" stroke="#BFDBFE" stroke-opacity="0.6" stroke-width="2"/>
<path d="M1266.06 113.976C1239.97 248 887.682 209.667 899.778 408.452C909.127 622.454 695.211 470.405 678.324 631.714C653.877 779.711 552.807 722.214 361.587 898.048C332.728 962.952 212.296 928.09 227.896 967.69" stroke="#BFDBFE" stroke-opacity="0.6" stroke-width="2"/>
<path d="M1290.05 122.667C1268.22 257.5 907.22 214.833 921.054 417.333C932.273 631.294 709.021 472.667 699.219 638C682.083 788.189 561.355 721.5 379.887 909.667C352.41 979.333 229.619 940.567 245.219 980.167" stroke="#BFDBFE" stroke-opacity="0.6" stroke-width="2"/>
<path d="M1314.04 131.357C1296.47 267 926.758 220 942.329 426.214C955.42 640.134 722.83 474.929 720.114 644.286C710.29 796.667 569.902 720.786 398.186 921.286C372.093 995.714 246.943 953.043 262.543 992.643" stroke="#BFDBFE" stroke-opacity="0.6" stroke-width="2"/>
<path d="M1338.03 140.048C1324.72 276.5 946.297 225.167 963.606 435.095C978.567 648.975 736.64 477.19 741.01 650.571C738.497 805.145 578.451 720.071 416.487 932.905C391.776 1012.1 264.267 965.519 279.867 1005.12" stroke="#BFDBFE" stroke-opacity="0.6" stroke-width="2"/>
<path d="M1362.03 148.738C1352.98 286 965.836 230.333 984.883 443.976C1001.71 657.815 750.451 479.452 761.906 656.857C766.705 813.622 586.999 719.357 434.788 944.524C411.459 1028.48 281.592 977.995 297.192 1017.6" stroke="#BFDBFE" stroke-opacity="0.6" stroke-width="2"/>
<path d="M1386.02 157.429C1381.23 295.5 985.376 235.5 1006.16 452.857C1024.86 666.655 764.262 481.714 782.803 663.143C794.914 822.1 595.549 718.643 453.09 956.143C431.144 1044.86 298.918 990.471 314.518 1030.07" stroke="#BFDBFE" stroke-opacity="0.6" stroke-width="2"/>
<path d="M1410.01 166.119C1409.49 305 1004.92 240.667 1027.44 461.738C1048.01 675.495 778.075 483.976 803.702 669.429C823.125 830.578 604.1 717.929 471.393 967.762C450.83 1061.24 316.245 1002.95 331.845 1042.55" stroke="#BFDBFE" stroke-opacity="0.6" stroke-width="2"/>
<path d="M1434 174.81C1437.74 314.5 1024.46 245.833 1048.72 470.619C1071.16 684.335 791.887 486.238 824.599 675.714C851.334 839.056 612.65 717.214 489.696 979.381C470.515 1077.62 333.571 1015.42 349.171 1055.02" stroke="#BFDBFE" stroke-opacity="0.6" stroke-width="2"/>
</svg>
