<svg width="867" height="721" viewBox="0 0 867 721" fill="none" xmlns="http://www.w3.org/2000/svg">
<path opacity="0.1" d="M866 498.551C789.299 339.207 696.45 454.9 636.63 309.396C576.81 163.893 575.709 104.272 480.658 98.5938C385.608 92.9156 358.817 53.5232 336.798 1" stroke="#BFDBFE" stroke-opacity="0.6" stroke-width="2"/>
<path opacity="0.2" d="M852.858 509.096C770.11 345.916 678.048 463.806 617.966 318.961C557.884 174.117 560.139 114.462 464.039 107.179C367.94 99.895 342.512 60.1984 320.807 8.23291" stroke="#BFDBFE" stroke-opacity="0.6" stroke-width="2"/>
<path opacity="0.3" d="M839.717 519.641C750.922 352.625 659.646 472.712 599.302 328.526C538.958 184.341 544.568 124.653 447.42 115.764C350.272 106.874 326.208 66.8737 304.817 15.4659" stroke="#BFDBFE" stroke-opacity="0.6" stroke-width="2"/>
<path opacity="0.4" d="M826.574 530.186C731.733 359.334 641.243 481.618 580.637 338.091C520.031 194.565 528.996 134.843 430.8 124.348C332.603 113.854 309.902 73.549 288.826 22.6988" stroke="#BFDBFE" stroke-opacity="0.6" stroke-width="2"/>
<path opacity="0.5" d="M813.433 540.732C712.545 366.043 622.841 490.524 561.973 347.656C501.105 204.789 513.425 145.033 414.18 132.933C314.935 120.833 293.597 80.2242 272.836 29.9317" stroke="#BFDBFE" stroke-opacity="0.6" stroke-width="2"/>
<path opacity="0.5" d="M800.291 551.277C693.357 372.752 604.44 499.43 543.309 357.222C482.179 215.013 497.855 155.224 397.561 141.518C297.267 127.813 277.293 86.8994 256.846 37.1646" stroke="#BFDBFE" stroke-opacity="0.6" stroke-width="2"/>
<path opacity="0.6" d="M787.149 561.822C674.168 379.461 586.038 508.336 524.645 366.787C463.253 225.238 482.284 165.414 380.942 150.103C279.6 134.792 260.988 93.5747 240.856 44.3976" stroke="#BFDBFE" stroke-opacity="0.6" stroke-width="2"/>
<path opacity="0.7" d="M774.008 572.367C654.98 386.17 567.636 517.242 505.981 376.352C444.327 235.462 466.713 175.604 364.322 158.688C261.932 141.772 244.683 100.25 224.866 51.6305" stroke="#BFDBFE" stroke-opacity="0.6" stroke-width="2"/>
<path opacity="0.8" d="M760.865 582.912C635.791 392.879 549.233 526.147 487.316 385.917C425.4 245.686 451.142 185.794 347.702 167.273C244.263 148.751 228.377 106.925 208.874 58.8634" stroke="#BFDBFE" stroke-opacity="0.6" stroke-width="2"/>
<path d="M747.724 593.458C616.603 399.588 530.831 535.053 468.652 395.482C406.474 255.91 435.571 195.985 331.083 175.858C226.595 155.731 212.073 113.6 192.884 66.0963" stroke="#BFDBFE" stroke-opacity="0.6" stroke-width="2"/>
<path d="M734.582 604.003C597.414 406.297 512.43 543.959 449.989 405.047C387.547 266.134 420 206.175 314.464 184.443C208.927 162.71 195.768 120.276 176.894 73.3293" stroke="#BFDBFE" stroke-opacity="0.6" stroke-width="2"/>
<path d="M721.44 614.548C578.226 413.006 494.028 552.865 431.325 414.612C368.621 276.358 404.429 216.365 297.844 193.027C191.259 169.689 179.463 126.951 160.904 80.5621" stroke="#BFDBFE" stroke-opacity="0.6" stroke-width="2"/>
<path d="M708.298 625.093C559.037 419.715 475.625 561.771 412.66 424.177C349.694 286.582 388.858 226.556 281.224 201.612C173.591 176.669 163.158 133.626 144.913 87.7951" stroke="#BFDBFE" stroke-opacity="0.6" stroke-width="2"/>
<path d="M695.156 635.638C539.849 426.424 457.223 570.677 393.996 433.742C330.768 296.806 373.287 236.746 264.605 210.197C155.923 183.648 146.853 140.301 128.923 95.028" stroke="#BFDBFE" stroke-opacity="0.6" stroke-width="2"/>
<path d="M682.015 646.184C520.661 433.133 438.821 579.583 375.332 443.307C311.842 307.03 357.716 246.936 247.986 218.782C138.255 190.628 130.548 146.977 112.932 102.261" stroke="#BFDBFE" stroke-opacity="0.6" stroke-width="2"/>
<path d="M668.873 656.729C501.472 439.842 420.419 588.489 356.668 452.872C292.916 317.255 342.145 257.127 231.366 227.367C120.587 197.607 114.243 153.652 96.9423 109.494" stroke="#BFDBFE" stroke-opacity="0.6" stroke-width="2"/>
<path d="M655.731 667.274C482.284 446.552 402.018 597.395 338.004 462.437C273.99 327.479 326.575 267.317 214.747 235.952C102.919 204.587 97.9387 160.327 80.9522 116.727" stroke="#BFDBFE" stroke-opacity="0.6" stroke-width="2"/>
<path d="M642.589 677.819C463.095 453.261 383.615 606.301 319.339 472.002C255.063 337.703 311.003 277.507 198.127 244.537C85.2505 211.566 81.633 167.002 64.9611 123.96" stroke="#BFDBFE" stroke-opacity="0.6" stroke-width="2"/>
<path d="M629.447 688.364C443.907 459.97 365.213 615.207 300.675 481.567C236.137 347.927 295.432 287.698 181.507 253.121C67.5826 218.545 65.3283 173.678 48.9709 131.193" stroke="#BFDBFE" stroke-opacity="0.6" stroke-width="2"/>
<path d="M616.306 698.91C424.718 466.679 346.811 624.113 282.011 491.132C217.211 358.151 279.861 297.888 164.888 261.706C49.9148 225.525 49.0235 180.353 32.9807 138.426" stroke="#BFDBFE" stroke-opacity="0.6" stroke-width="2"/>
<path d="M603.164 709.455C405.53 473.388 328.409 633.019 263.347 500.697C198.285 368.375 264.291 308.078 148.269 270.291C32.2469 232.504 32.7188 187.028 16.9906 145.658" stroke="#BFDBFE" stroke-opacity="0.6" stroke-width="2"/>
<path d="M590.022 720C386.342 480.097 310.008 641.925 244.683 510.262C179.359 378.599 248.72 318.269 131.65 278.876C14.5792 239.484 16.4141 193.703 1.00045 152.891" stroke="#BFDBFE" stroke-opacity="0.6" stroke-width="2"/>
</svg>
