<svg width="2472" height="1032" viewBox="0 0 2472 1032" fill="none" xmlns="http://www.w3.org/2000/svg">
<path d="M288.827 308C310.846 360.523 337.637 399.916 432.688 405.594C527.738 411.272 528.839 470.893 588.659 616.396C648.479 761.9 741.328 646.207 818.029 805.551L1086.83 805.5C1071.23 765.9 1160.99 750 1207.83 747C1525.83 731.5 1371.33 669.5 1490.83 550C1599.83 441 1692.36 507.533 1707.33 293C1717.83 142.5 1956.83 124.5 2038.33 1" stroke="#A7BFDE" stroke-width="2"/>
<path d="M272.836 315.233C294.541 367.198 319.969 406.895 416.068 414.179C512.168 421.462 509.913 481.117 569.995 625.961C630.077 770.806 722.139 652.916 804.887 816.096L1104.13 817.976C1088.53 778.376 1180.66 766.381 1226.11 758.619C1534.36 730.786 1399.52 677.978 1511.71 556.286C1613.62 443.262 1715.49 516.373 1728.59 301.881C1737.35 147.667 1985.06 134 2062.3 9.69043" stroke="#A7BFDE" stroke-width="2"/>
<path d="M256.846 322.466C278.236 373.874 302.3 413.875 399.448 422.764C496.596 431.653 490.987 491.341 551.331 635.526C611.674 779.712 702.951 659.625 791.745 826.641L1121.44 830.452C1105.84 790.852 1200.33 782.762 1244.39 770.238C1542.89 730.071 1427.71 686.456 1532.59 562.571C1627.41 445.524 1738.62 525.213 1749.85 310.762C1756.87 152.833 2013.3 143.5 2086.28 18.381" stroke="#A7BFDE" stroke-width="2"/>
<path d="M240.855 329.699C261.931 380.549 284.632 420.854 382.829 431.348C481.025 441.843 472.06 501.565 532.666 645.091C593.273 788.618 683.762 666.334 778.604 837.186L1138.75 842.929C1123.15 803.329 1220 799.143 1262.68 781.857C1551.42 729.357 1455.9 694.933 1553.47 568.857C1641.21 447.786 1761.75 534.053 1771.11 319.643C1776.4 158 2041.54 153 2110.25 27.0714" stroke="#A7BFDE" stroke-width="2"/>
<path d="M224.865 336.932C245.627 387.224 266.964 427.833 366.21 439.933C465.455 452.033 453.134 511.789 514.002 654.657C574.871 797.524 664.574 673.043 765.462 847.732L1156.06 855.405C1140.46 815.805 1239.67 815.524 1280.97 793.476C1559.96 728.643 1484.1 703.411 1574.35 575.143C1655.01 450.048 1784.89 542.893 1792.37 328.524C1795.92 163.167 2069.78 162.5 2134.23 35.762" stroke="#A7BFDE" stroke-width="2"/>
<path d="M208.875 344.165C229.321 393.899 249.296 434.813 349.59 448.518C449.883 462.224 434.208 522.013 495.338 664.221C556.468 806.43 645.385 679.752 752.32 858.277L1173.38 867.881C1157.78 828.281 1259.34 831.905 1299.26 805.095C1568.5 727.929 1512.29 711.889 1595.23 581.429C1668.81 452.31 1808.03 551.733 1813.64 337.405C1815.45 168.333 2098.02 172 2158.21 44.4524" stroke="#A7BFDE" stroke-width="2"/>
<path d="M192.884 351.398C213.016 400.575 231.628 441.792 332.97 457.103C434.313 472.414 415.281 532.238 476.674 673.787C538.066 815.336 626.197 686.461 739.178 868.822L1190.69 880.357C1175.09 840.757 1279.01 848.286 1317.55 816.714C1577.04 727.214 1540.49 720.367 1616.12 587.714C1682.61 454.571 1831.16 560.573 1834.91 346.286C1834.98 173.5 2126.26 181.5 2182.19 53.1428" stroke="#A7BFDE" stroke-width="2"/>
<path d="M176.894 358.63C196.712 407.25 213.96 448.772 316.351 465.688C418.742 482.604 396.355 542.462 458.01 683.352C519.665 824.241 607.009 693.17 726.036 879.367L1208.01 892.833C1192.41 853.233 1298.69 864.667 1335.84 828.333C1585.58 726.5 1568.69 728.844 1637.01 594C1696.41 456.833 1854.3 569.413 1856.18 355.167C1854.51 178.667 2154.51 191 2206.18 61.8333" stroke="#A7BFDE" stroke-width="2"/>
<path d="M160.904 365.864C180.407 413.925 196.292 455.751 299.732 474.273C403.171 492.795 377.429 552.686 439.346 692.917C501.263 833.148 587.82 699.879 712.895 889.913L1225.33 905.31C1209.73 865.71 1318.36 881.048 1354.14 839.952C1594.12 725.786 1596.89 737.322 1657.9 600.286C1710.21 459.095 1877.44 578.254 1877.44 364.048C1874.04 183.833 2182.75 200.5 2230.16 70.5239" stroke="#A7BFDE" stroke-width="2"/>
<path d="M144.913 373.096C164.102 420.6 178.624 462.731 283.112 482.858C387.6 502.985 358.502 562.91 420.681 702.482C482.86 842.054 568.631 706.588 699.752 900.458L1242.64 917.786C1227.04 878.186 1338.04 897.429 1372.43 851.571C1602.66 725.071 1625.09 745.8 1678.79 606.571C1724.02 461.357 1900.58 587.094 1898.71 372.929C1893.57 189 2211 210 2254.14 79.2144" stroke="#A7BFDE" stroke-width="2"/>
<path d="M128.923 380.329C147.797 427.276 160.956 469.71 266.492 491.443C372.029 513.175 339.576 573.134 402.017 712.047C464.458 850.959 549.443 713.297 686.611 911.003L1259.96 930.262C1244.36 890.662 1357.72 913.81 1390.72 863.19C1611.2 724.357 1653.29 754.278 1699.68 612.857C1737.82 463.619 1923.72 595.934 1919.99 381.81C1913.11 194.167 2239.25 219.5 2278.13 87.9048" stroke="#A7BFDE" stroke-width="2"/>
<path d="M112.933 387.562C131.492 433.951 143.288 476.689 249.873 500.027C356.458 523.365 320.65 583.358 383.353 721.612C446.056 859.865 530.255 720.006 673.469 921.548L1277.28 942.738C1261.68 903.138 1377.4 930.19 1409.02 874.809C1619.75 723.643 1681.5 762.756 1720.57 619.143C1751.63 465.881 1946.87 604.774 1941.26 390.69C1932.64 199.333 2267.5 229 2302.12 96.5952" stroke="#A7BFDE" stroke-width="2"/>
<path d="M96.9424 394.795C115.187 440.626 125.62 483.669 233.254 508.612C340.887 533.556 301.724 593.582 364.689 731.177C427.655 868.771 511.067 726.715 660.327 932.093L1294.6 955.214C1279 915.614 1397.08 946.571 1427.32 886.428C1628.29 722.928 1709.7 771.233 1741.46 625.429C1765.43 468.143 1970.01 613.614 1962.53 399.571C1952.18 204.5 2295.75 238.5 2326.1 105.286" stroke="#A7BFDE" stroke-width="2"/>
<path d="M80.9517 402.028C98.8818 447.301 107.952 490.648 216.634 517.197C325.316 543.746 282.797 603.806 346.025 740.742C409.252 877.677 491.878 733.424 647.185 942.638L1311.93 967.69C1296.33 928.09 1416.76 962.952 1445.62 898.047C1636.84 722.214 1737.91 779.711 1762.35 631.714C1779.24 470.405 1993.16 622.454 1983.81 408.452C1971.71 209.667 2324 248 2350.09 113.976" stroke="#A7BFDE" stroke-width="2"/>
<path d="M64.9614 409.261C82.577 453.977 90.2839 497.628 200.014 525.782C309.745 553.936 263.871 614.031 327.361 750.307C390.85 886.583 472.689 740.134 634.044 953.184L1329.25 980.167C1313.65 940.567 1436.44 979.333 1463.92 909.667C1645.38 721.5 1766.11 788.189 1783.25 638C1793.05 472.667 2016.3 631.294 2005.08 417.333C1991.25 214.833 2352.25 257.5 2374.08 122.667" stroke="#A7BFDE" stroke-width="2"/>
<path d="M48.9712 416.494C66.2722 460.652 72.616 504.607 183.395 534.367C294.174 564.127 244.945 624.255 308.697 759.872C372.448 895.489 453.501 746.842 620.902 963.729L1346.57 992.643C1330.97 953.043 1456.12 995.714 1482.22 921.286C1653.93 720.786 1794.32 796.667 1804.14 644.286C1806.86 474.929 2039.45 640.135 2026.36 426.214C2010.79 220 2380.5 267 2398.07 131.357" stroke="#A7BFDE" stroke-width="2"/>
<path d="M32.981 423.727C49.9675 467.327 54.9481 511.587 166.776 542.952C278.603 574.317 226.019 634.479 290.033 769.437C354.046 904.395 434.313 753.552 607.76 974.274L1363.9 1005.12C1348.3 965.519 1475.8 1012.1 1500.52 932.905C1662.48 720.071 1822.53 805.145 1825.04 650.571C1820.67 477.19 2062.6 648.975 2047.64 435.095C2030.33 225.167 2408.75 276.5 2422.06 140.048" stroke="#A7BFDE" stroke-width="2"/>
<path d="M16.9902 430.96C33.6622 474.002 37.2797 518.566 150.156 551.537C263.032 584.507 207.092 644.703 271.368 779.002C335.644 913.301 415.124 760.261 594.618 984.819L1381.22 1017.6C1365.62 977.995 1495.49 1028.48 1518.82 944.524C1671.03 719.357 1850.73 813.622 1845.93 656.857C1834.48 479.452 2085.74 657.815 2068.91 443.976C2049.86 230.333 2437.01 286 2446.05 148.738" stroke="#A7BFDE" stroke-width="2"/>
<path d="M1 438.193C17.3574 480.678 19.6118 525.546 133.536 560.122C247.461 594.698 188.166 654.927 252.704 788.567C317.242 922.207 395.936 766.97 581.476 995.365L1398.55 1030.07C1382.95 990.472 1515.17 1044.86 1537.12 956.143C1679.58 718.643 1878.94 822.1 1866.83 663.143C1848.29 481.714 2108.89 666.655 2090.19 452.857C2069.4 235.5 2465.26 295.5 2470.05 157.429" stroke="#A7BFDE" stroke-width="2"/>
</svg>
