<svg width="716" height="890" viewBox="0 0 716 890" fill="none" xmlns="http://www.w3.org/2000/svg">
<path opacity="0.1" d="M500.5 77.7723C441.236 100.388 406.5 163.956 406.5 270.556C406.5 389.98 428.365 354.202 356 419.409C285 483.386 278.192 507.642 320 571.248C436.114 747.899 60.484 796.169 1 820.758" stroke="#BFDBFE" stroke-width="2"/>
<path d="M710 1C753.5 96.1124 494.289 100.924 582.5 177.576C730.527 306.207 533.257 241.637 632 388.274C728.389 531.415 511.473 507.186 574.473 711.997C637.473 916.808 491.5 830.141 513.5 889" stroke="#BFDBFE" stroke-width="2"/>
<path opacity="0.2" d="M511.406 73.7317C457.551 100.163 411 160.639 415.643 265.663C423.434 385.571 433.766 348.278 370.406 417.771C308.216 485.914 290.349 507.618 333.273 578.656C446.592 756.789 83.0489 797.957 27.8535 824.35" stroke="#BFDBFE" stroke-width="2"/>
<path opacity="0.3" d="M522.313 69.691C473.866 99.938 415.501 157.321 424.786 260.769C440.368 381.162 439.166 342.353 384.813 416.132C331.433 488.442 302.508 507.594 346.547 586.063C457.07 765.679 105.614 799.745 54.7075 827.941" stroke="#BFDBFE" stroke-width="2"/>
<path opacity="0.4" d="M533.219 65.6504C490.181 99.713 420.001 154.004 433.929 255.875C457.302 376.753 444.567 336.429 399.219 414.493C354.649 490.97 314.666 507.57 359.82 593.471C467.547 774.569 128.179 801.533 81.561 831.533" stroke="#BFDBFE" stroke-width="2"/>
<path opacity="0.5" d="M544.125 61.6097C506.496 99.4879 424.502 150.686 443.072 250.981C474.236 372.343 449.967 330.504 413.625 412.854C377.865 493.497 326.823 507.546 373.093 600.879C478.025 783.459 150.744 803.321 108.415 835.125" stroke="#BFDBFE" stroke-width="2"/>
<path opacity="0.6" d="M555.031 57.5691C522.811 99.2629 429.002 147.369 452.215 246.088C491.17 367.934 455.368 324.58 428.031 411.216C401.081 496.025 338.981 507.522 386.366 608.287C488.503 792.349 173.309 805.109 135.268 838.716" stroke="#BFDBFE" stroke-width="2"/>
<path opacity="0.7" d="M565.938 53.5284C539.126 99.0379 433.503 144.051 461.359 241.194C508.104 363.525 460.769 318.655 442.438 409.577C424.298 498.553 351.139 507.498 399.64 615.695C498.981 801.239 195.874 806.897 162.122 842.308" stroke="#BFDBFE" stroke-width="2"/>
<path opacity="0.8" d="M576.844 49.4878C555.441 98.8128 438.003 140.734 470.502 236.3C525.038 359.116 466.169 312.731 456.844 407.938C447.514 501.081 363.297 507.474 412.913 623.103C509.459 810.129 218.439 808.685 188.976 845.9" stroke="#BFDBFE" stroke-width="2"/>
<path opacity="0.9" d="M587.75 45.4471C571.755 98.5878 442.503 137.416 479.645 231.407C541.972 354.707 471.57 306.806 471.25 406.3C470.73 503.609 375.455 507.45 426.186 630.511C519.936 819.019 241.004 810.473 215.829 849.491" stroke="#BFDBFE" stroke-width="2"/>
<path d="M598.656 41.4065C588.07 98.3628 447.004 134.099 488.788 226.513C558.906 350.298 476.97 300.882 485.656 404.661C493.946 506.137 387.613 507.426 439.459 637.919C530.414 827.909 263.569 812.261 242.683 853.083" stroke="#BFDBFE" stroke-width="2"/>
<path d="M609.563 37.3658C604.385 98.1377 451.504 130.781 497.931 221.619C575.84 345.889 482.371 294.957 500.063 403.022C517.162 508.664 399.771 507.402 452.733 645.326C540.892 836.799 286.134 814.049 269.537 856.675" stroke="#BFDBFE" stroke-width="2"/>
<path d="M620.469 33.3252C620.7 97.9127 456.005 127.464 507.074 216.726C592.774 341.48 487.771 289.033 514.469 401.383C540.379 511.192 411.929 507.378 466.006 652.734C551.37 845.689 308.699 815.837 296.39 860.266" stroke="#BFDBFE" stroke-width="2"/>
<path d="M631.375 29.2845C637.015 97.6876 460.505 124.146 516.217 211.832C609.708 337.071 493.172 283.108 528.875 399.745C563.595 513.72 424.087 507.354 479.279 660.142C561.848 854.579 331.264 817.625 323.244 863.858" stroke="#BFDBFE" stroke-width="2"/>
<path d="M642.281 25.2439C653.33 97.4626 465.005 120.829 525.36 206.938C626.642 332.662 498.572 277.184 543.281 398.106C586.811 516.248 436.245 507.33 492.553 667.55C572.325 863.469 353.829 819.413 350.097 867.45" stroke="#BFDBFE" stroke-width="2"/>
<path d="M653.189 21.2032C669.646 97.2376 469.507 117.511 534.505 202.045C643.577 328.252 503.974 271.259 557.689 396.467C610.028 518.776 448.404 507.306 505.827 674.958C582.805 872.359 376.395 821.201 376.952 871.042" stroke="#BFDBFE" stroke-width="2"/>
<path d="M664.183 17.1626C686.049 97.0125 474.096 114.194 543.736 197.151C660.599 323.843 509.463 265.335 572.183 394.829C633.333 521.304 460.65 507.282 519.189 682.366C593.371 881.249 399.048 822.989 403.894 874.633" stroke="#BFDBFE" stroke-width="2"/>
<path d="M675.334 13.1219C702.608 96.7875 478.84 110.876 553.123 192.257C677.777 319.434 515.107 259.41 586.834 393.19C656.793 523.831 473.052 507.258 532.706 689.773C604.092 890.138 421.857 824.777 430.992 878.225" stroke="#BFDBFE" stroke-width="2"/>
<path d="M686.665 9.0813C719.347 96.5625 483.765 107.559 562.691 187.364C695.136 315.025 520.933 253.486 601.665 391.551C680.434 526.359 485.635 507.234 546.404 697.181C614.995 899.028 444.847 826.565 458.27 881.817" stroke="#BFDBFE" stroke-width="2"/>
<path d="M698.208 5.04065C736.299 96.3374 488.902 104.241 572.471 182.47C712.707 310.616 526.97 247.561 616.708 389.912C704.287 528.887 498.429 507.21 560.314 704.589C626.11 907.918 468.049 828.353 485.76 885.408" stroke="#BFDBFE" stroke-width="2"/>
</svg>
