<svg width="1730" height="1493" viewBox="0 0 1730 1493" fill="none" xmlns="http://www.w3.org/2000/svg">
<path opacity="0.1" d="M831.35 168.42C866.877 312.06 1086.11 408.919 1045.69 554.271C988.085 761.465 1097.54 729.693 1163.83 868.86C1236.5 1021.43 1070.17 1028.22 1364.69 1149.13C1407.83 1167.61 1487.11 1212.61 1459.17 1244.71" stroke="#BFDBFE" stroke-width="2"/>
<path d="M295.618 172.038C241.11 301.781 663.236 374.051 562.346 580.714C468.002 773.969 808.432 677.549 706.238 846.613C618.815 991.242 906.098 954.108 921.026 1250.66C903.368 1353.68 1056.75 1337.95 1028.81 1370.06" stroke="#BFDBFE" stroke-width="2"/>
<path opacity="0.2" d="M805.85 168.596C837.089 311.574 1065.98 407.263 1022.69 555.534C963.331 762.065 1083.78 727.214 1142.05 867.804C1207.1 1020 1062.37 1024.69 1343.58 1153.97C1383.82 1176.48 1466.63 1218.58 1438.69 1250.69" stroke="#BFDBFE" stroke-width="2"/>
<path opacity="0.3" d="M780.349 168.772C807.301 311.088 1045.86 405.606 999.683 556.797C938.575 762.664 1070.02 724.734 1120.27 866.749C1177.7 1018.56 1054.56 1021.17 1322.46 1158.81C1359.8 1185.34 1446.15 1224.55 1418.21 1256.66" stroke="#BFDBFE" stroke-width="2"/>
<path opacity="0.4" d="M754.846 168.947C777.511 310.602 1025.73 403.949 976.675 558.059C913.817 763.262 1056.26 722.254 1098.49 865.692C1148.29 1017.13 1046.76 1017.64 1301.34 1163.64C1335.79 1194.21 1425.66 1230.52 1397.72 1262.63" stroke="#BFDBFE" stroke-width="2"/>
<path opacity="0.5" d="M729.342 169.122C747.719 310.115 1005.6 402.291 953.664 559.321C889.058 763.86 1042.5 719.774 1076.7 864.635C1118.89 1015.69 1038.95 1014.11 1280.22 1168.48C1311.78 1203.07 1405.18 1236.5 1377.24 1268.6" stroke="#BFDBFE" stroke-width="2"/>
<path opacity="0.6" d="M703.836 169.296C717.926 309.627 985.467 400.632 930.653 560.582C864.297 764.457 1028.74 717.293 1054.92 863.578C1089.48 1014.26 1031.14 1010.59 1259.1 1173.32C1287.76 1211.93 1384.69 1242.47 1356.75 1274.57" stroke="#BFDBFE" stroke-width="2"/>
<path opacity="0.7" d="M678.33 169.47C688.132 309.139 965.334 398.973 907.641 561.843C839.536 765.054 1014.98 714.811 1033.13 862.52C1060.07 1012.82 1023.34 1007.06 1237.98 1178.15C1263.74 1220.79 1364.2 1248.44 1336.26 1280.54" stroke="#BFDBFE" stroke-width="2"/>
<path opacity="0.8" d="M652.822 169.644C658.337 308.651 945.201 397.314 884.628 563.103C814.773 765.651 1001.22 712.329 1011.35 861.462C1030.66 1011.39 1015.53 1003.53 1216.85 1182.99C1239.72 1229.65 1343.71 1254.41 1315.77 1286.51" stroke="#BFDBFE" stroke-width="2"/>
<path opacity="0.9" d="M627.313 169.817C628.541 308.162 925.066 395.654 861.613 564.363C790.01 766.247 987.452 709.847 989.559 860.403C1001.25 1009.95 1007.72 1000 1195.73 1187.83C1215.7 1238.52 1323.22 1260.38 1295.28 1292.48" stroke="#BFDBFE" stroke-width="2"/>
<path d="M601.803 169.989C598.743 307.673 904.93 393.994 838.598 565.622C765.245 766.842 973.686 707.364 967.77 859.344C971.833 1008.51 999.904 996.475 1174.6 1192.66C1191.68 1247.38 1302.73 1266.35 1274.79 1298.45" stroke="#BFDBFE" stroke-width="2"/>
<path d="M576.291 170.161C568.945 307.184 884.793 392.334 815.581 566.881C740.479 767.438 959.919 704.881 945.98 858.284C942.419 1007.07 992.091 992.946 1153.47 1197.5C1167.66 1256.24 1282.23 1272.31 1254.29 1304.42" stroke="#BFDBFE" stroke-width="2"/>
<path d="M550.779 170.333C539.145 306.694 864.655 390.673 792.563 568.14C715.712 768.033 946.151 702.397 924.189 857.225C913.004 1005.64 984.277 989.417 1132.35 1202.33C1143.64 1265.1 1261.74 1278.28 1233.8 1310.39" stroke="#BFDBFE" stroke-width="2"/>
<path d="M525.267 170.505C509.345 306.204 844.517 389.012 769.545 569.399C690.944 768.628 932.383 699.914 902.397 856.165C883.588 1004.2 976.463 985.887 1111.22 1207.16C1119.61 1273.96 1241.24 1284.25 1213.3 1316.36" stroke="#BFDBFE" stroke-width="2"/>
<path d="M499.753 170.676C479.544 305.713 824.377 387.351 746.526 570.657C666.176 769.222 918.613 697.43 880.605 855.104C854.172 1002.76 968.647 982.357 1090.09 1212C1095.59 1282.82 1220.75 1290.22 1192.81 1322.33" stroke="#BFDBFE" stroke-width="2"/>
<path d="M474.239 170.848C449.742 305.223 804.237 385.689 723.506 571.915C641.407 769.816 904.843 694.945 858.811 854.044C824.755 1001.32 960.831 978.827 1068.96 1216.83C1071.56 1291.67 1200.25 1296.19 1172.31 1328.29" stroke="#BFDBFE" stroke-width="2"/>
<path d="M448.723 171.018C419.939 304.732 784.096 384.027 700.485 573.173C616.636 770.41 891.072 692.461 837.017 852.983C795.336 999.882 953.014 975.296 1047.83 1221.66C1047.54 1300.53 1179.75 1302.15 1151.81 1334.26" stroke="#BFDBFE" stroke-width="2"/>
<path d="M423.207 171.189C390.136 304.24 763.954 382.365 677.463 574.43C591.865 771.004 877.3 689.976 815.222 851.922C765.918 998.442 945.196 971.765 1026.69 1226.5C1023.51 1309.39 1159.25 1308.12 1131.31 1340.23" stroke="#BFDBFE" stroke-width="2"/>
<path d="M397.691 171.359C360.333 303.749 743.812 380.703 654.442 575.687C567.095 771.597 863.528 687.491 793.427 850.86C736.499 997.003 937.378 968.234 1005.56 1231.33C999.484 1318.25 1138.76 1314.09 1110.82 1346.19" stroke="#BFDBFE" stroke-width="2"/>
<path d="M372.174 171.529C330.528 303.257 723.669 379.04 631.419 576.944C542.323 772.191 849.755 685.006 771.631 849.799C707.079 995.563 929.559 964.703 984.429 1236.16C975.456 1327.11 1118.26 1320.05 1090.32 1352.16" stroke="#BFDBFE" stroke-width="2"/>
<path d="M346.655 171.699C300.723 302.765 703.525 377.377 608.395 578.201C517.549 772.783 835.981 682.52 749.834 848.737C677.658 994.123 921.739 961.171 963.295 1240.99C951.427 1335.97 1097.76 1326.02 1069.81 1358.13" stroke="#BFDBFE" stroke-width="2"/>
<path d="M321.137 171.869C270.917 302.273 683.381 375.714 585.371 579.458C492.776 773.376 822.207 680.035 728.036 847.675C648.237 992.682 913.919 957.64 942.16 1245.83C927.398 1344.82 1077.25 1331.99 1049.31 1364.09" stroke="#BFDBFE" stroke-width="2"/>
</svg>
