<svg width="40" height="23" viewBox="0 0 40 23" fill="none" xmlns="http://www.w3.org/2000/svg">
<path d="M0.68 18V1.2H4.592L13.856 12.384H12.008V1.2H16.664V18H12.752L3.488 6.816H5.336V18H0.68ZM29.6879 18.336C28.3439 18.336 27.1039 18.12 25.9679 17.688C24.8319 17.256 23.8399 16.648 22.9919 15.864C22.1599 15.064 21.5119 14.136 21.0479 13.08C20.5839 12.024 20.3519 10.864 20.3519 9.6C20.3519 8.336 20.5839 7.176 21.0479 6.12C21.5119 5.064 22.1599 4.144 22.9919 3.36C23.8399 2.56 24.8319 1.944 25.9679 1.512C27.1039 1.08 28.3439 0.863999 29.6879 0.863999C31.0479 0.863999 32.2879 1.08 33.4079 1.512C34.5439 1.944 35.5279 2.552 36.3599 3.336C37.1919 4.12 37.8399 5.048 38.3039 6.12C38.7839 7.176 39.0239 8.336 39.0239 9.6C39.0239 10.864 38.7839 12.032 38.3039 13.104C37.8399 14.16 37.1919 15.08 36.3599 15.864C35.5279 16.648 34.5439 17.256 33.4079 17.688C32.2879 18.12 31.0479 18.336 29.6879 18.336ZM35.1839 22.056C34.4639 22.056 33.7919 21.976 33.1679 21.816C32.5439 21.672 31.9279 21.432 31.3199 21.096C30.7279 20.76 30.1039 20.304 29.4479 19.728C28.8079 19.152 28.0879 18.44 27.2879 17.592L32.2559 16.344C32.6559 16.936 33.0159 17.4 33.3359 17.736C33.6559 18.072 33.9679 18.312 34.2719 18.456C34.5919 18.6 34.9279 18.672 35.2799 18.672C36.2079 18.672 37.0559 18.28 37.8239 17.496L39.8879 19.944C38.7199 21.352 37.1519 22.056 35.1839 22.056ZM29.6879 14.4C30.3279 14.4 30.9199 14.288 31.4639 14.064C32.0239 13.84 32.5039 13.52 32.9039 13.104C33.3199 12.672 33.6399 12.16 33.8639 11.568C34.1039 10.976 34.2239 10.32 34.2239 9.6C34.2239 8.864 34.1039 8.208 33.8639 7.632C33.6399 7.04 33.3199 6.536 32.9039 6.12C32.5039 5.688 32.0239 5.36 31.4639 5.136C30.9199 4.912 30.3279 4.8 29.6879 4.8C29.0479 4.8 28.4479 4.912 27.8879 5.136C27.3439 5.36 26.8639 5.688 26.4479 6.12C26.0479 6.536 25.7279 7.04 25.4879 7.632C25.2639 8.208 25.1519 8.864 25.1519 9.6C25.1519 10.32 25.2639 10.976 25.4879 11.568C25.7279 12.16 26.0479 12.672 26.4479 13.104C26.8639 13.52 27.3439 13.84 27.8879 14.064C28.4479 14.288 29.0479 14.4 29.6879 14.4Z" fill="black"/>
<path d="M0.68 18H-0.32V19H0.68V18ZM0.68 1.2V0.199999H-0.32V1.2H0.68ZM4.592 1.2L5.36211 0.562093L5.06218 0.199999H4.592V1.2ZM13.856 12.384V13.384H15.9828L14.6261 11.7461L13.856 12.384ZM12.008 12.384H11.008V13.384H12.008V12.384ZM12.008 1.2V0.199999H11.008V1.2H12.008ZM16.664 1.2H17.664V0.199999H16.664V1.2ZM16.664 18V19H17.664V18H16.664ZM12.752 18L11.9819 18.6379L12.2818 19H12.752V18ZM3.488 6.816V5.816H1.36117L2.71789 7.45391L3.488 6.816ZM5.336 6.816H6.336V5.816H5.336V6.816ZM5.336 18V19H6.336V18H5.336ZM1.68 18V1.2H-0.32V18H1.68ZM0.68 2.2H4.592V0.199999H0.68V2.2ZM3.82189 1.8379L13.0859 13.0219L14.6261 11.7461L5.36211 0.562093L3.82189 1.8379ZM13.856 11.384H12.008V13.384H13.856V11.384ZM13.008 12.384V1.2H11.008V12.384H13.008ZM12.008 2.2H16.664V0.199999H12.008V2.2ZM15.664 1.2V18H17.664V1.2H15.664ZM16.664 17H12.752V19H16.664V17ZM13.5221 17.3621L4.25811 6.17809L2.71789 7.45391L11.9819 18.6379L13.5221 17.3621ZM3.488 7.816H5.336V5.816H3.488V7.816ZM4.336 6.816V18H6.336V6.816H4.336ZM5.336 17H0.68V19H5.336V17ZM25.9679 17.688L25.6125 18.6227L25.9679 17.688ZM22.9919 15.864L22.2988 16.5848L22.3059 16.5916L22.3131 16.5983L22.9919 15.864ZM21.0479 13.08L20.1324 13.4823L21.0479 13.08ZM21.0479 6.12L20.1324 5.71773L21.0479 6.12ZM22.9919 3.36L23.6777 4.08779L23.6782 4.08739L22.9919 3.36ZM25.9679 1.512L25.6125 0.577303L25.9679 1.512ZM33.4079 1.512L33.0481 2.44501L33.0525 2.4467L33.4079 1.512ZM36.3599 3.336L35.6741 4.06379V4.06379L36.3599 3.336ZM38.3039 6.12L37.3862 6.51722L37.3898 6.52555L37.3936 6.5338L38.3039 6.12ZM38.3039 13.104L37.3912 12.6953L37.3884 12.7017L38.3039 13.104ZM36.3599 15.864L37.0457 16.5918L36.3599 15.864ZM33.4079 17.688L33.0525 16.7533L33.0481 16.755L33.4079 17.688ZM33.1679 21.816L33.4163 20.8473L33.4046 20.8443L33.3928 20.8416L33.1679 21.816ZM31.3199 21.096L30.8263 21.9657L30.8363 21.9712L31.3199 21.096ZM29.4479 19.728L28.7789 20.4713L28.7881 20.4794L29.4479 19.728ZM27.2879 17.592L27.0443 16.6221L25.3902 17.0377L26.5605 18.2782L27.2879 17.592ZM32.2559 16.344L33.0845 15.7841L32.6921 15.2034L32.0123 15.3741L32.2559 16.344ZM33.3359 17.736L34.0601 17.0463L33.3359 17.736ZM34.2719 18.456L33.8439 19.3597L33.8527 19.3639L33.8616 19.3679L34.2719 18.456ZM37.8239 17.496L38.5885 16.8514L37.8794 16.0104L37.1096 16.7962L37.8239 17.496ZM39.8879 19.944L40.6576 20.5825L41.1916 19.9388L40.6525 19.2994L39.8879 19.944ZM31.4639 14.064L31.0925 13.1355L31.0832 13.1393L31.4639 14.064ZM32.9039 13.104L32.1836 12.4104L32.1831 12.4109L32.9039 13.104ZM33.8639 11.568L32.9372 11.1923L32.9328 11.2031L32.9287 11.2141L33.8639 11.568ZM33.8639 7.632L32.9287 7.98589L32.9345 8.00136L32.9409 8.01662L33.8639 7.632ZM32.9039 6.12L32.1702 6.79941L32.1832 6.81351L32.1968 6.82711L32.9039 6.12ZM31.4639 5.136L31.0832 6.06073L31.0925 6.06448L31.4639 5.136ZM27.8879 5.136L27.5165 4.20748L27.5072 4.21132L27.8879 5.136ZM26.4479 6.12L25.7276 5.42636L25.7271 5.42689L26.4479 6.12ZM25.4879 7.632L24.5612 7.25629L24.5585 7.26291L24.5559 7.26955L25.4879 7.632ZM25.4879 11.568L24.5527 11.9219L24.5568 11.9328L24.5612 11.9437L25.4879 11.568ZM26.4479 13.104L25.7142 13.7834L25.7272 13.7975L25.7408 13.8111L26.4479 13.104ZM27.8879 14.064L27.5072 14.9887L27.5165 14.9925L27.8879 14.064ZM29.6879 17.336C28.4526 17.336 27.3344 17.1378 26.3234 16.7533L25.6125 18.6227C26.8734 19.1022 28.2353 19.336 29.6879 19.336V17.336ZM26.3234 16.7533C25.3007 16.3644 24.4199 15.8223 23.6708 15.1297L22.3131 16.5983C23.2599 17.4737 24.3632 18.1476 25.6125 18.6227L26.3234 16.7533ZM23.685 15.1432C22.9472 14.4337 22.3748 13.6139 21.9635 12.6777L20.1324 13.4823C20.6491 14.6581 21.3726 15.6943 22.2988 16.5848L23.685 15.1432ZM21.9635 12.6777C21.5603 11.7602 21.3519 10.7389 21.3519 9.6H19.3519C19.3519 10.9891 19.6076 12.2878 20.1324 13.4823L21.9635 12.6777ZM21.3519 9.6C21.3519 8.46111 21.5603 7.43977 21.9635 6.52227L20.1324 5.71773C19.6076 6.91223 19.3519 8.21089 19.3519 9.6H21.3519ZM21.9635 6.52227C22.374 5.58795 22.9443 4.77894 23.6777 4.08779L22.3061 2.63221C21.3756 3.50905 20.6499 4.54004 20.1324 5.71773L21.9635 6.52227ZM23.6782 4.08739C24.4265 3.38138 25.3049 2.83402 26.3234 2.4467L25.6125 0.577303C24.359 1.05398 23.2533 1.73862 22.3057 2.63261L23.6782 4.08739ZM26.3234 2.4467C27.3344 2.06221 28.4526 1.864 29.6879 1.864V-0.136001C28.2353 -0.136001 26.8734 0.0977907 25.6125 0.577303L26.3234 2.4467ZM29.6879 1.864C30.9411 1.864 32.0571 2.06277 33.0481 2.445L33.7678 0.578998C32.5188 0.0972261 31.1548 -0.136001 29.6879 -0.136001V1.864ZM33.0525 2.4467C34.0737 2.83505 34.9435 3.37534 35.6741 4.06379L37.0457 2.60821C36.1123 1.72866 35.0142 1.05295 33.7634 0.577303L33.0525 2.4467ZM35.6741 4.06379C36.405 4.75245 36.975 5.56724 37.3862 6.51722L39.2217 5.72278C38.7048 4.52875 37.9789 3.48755 37.0457 2.60821L35.6741 4.06379ZM37.3936 6.5338C37.8094 7.44855 38.0239 8.4658 38.0239 9.6H40.0239C40.0239 8.2062 39.7585 6.90345 39.2143 5.7062L37.3936 6.5338ZM38.0239 9.6C38.0239 10.734 37.8094 11.7615 37.3913 12.6953L39.2166 13.5127C39.7585 12.3025 40.0239 10.994 40.0239 9.6H38.0239ZM37.3884 12.7017C36.9779 13.636 36.4076 14.4451 35.6741 15.1362L37.0457 16.5918C37.9763 15.7149 38.702 14.684 39.2195 13.5063L37.3884 12.7017ZM35.6741 15.1362C34.9435 15.8247 34.0737 16.365 33.0525 16.7533L33.7634 18.6227C35.0142 18.147 36.1123 17.4713 37.0457 16.5918L35.6741 15.1362ZM33.0481 16.755C32.0571 17.1372 30.9411 17.336 29.6879 17.336V19.336C31.1548 19.336 32.5188 19.1028 33.7678 18.621L33.0481 16.755ZM35.1839 21.056C34.538 21.056 33.9503 20.9843 33.4163 20.8473L32.9196 22.7847C33.6336 22.9677 34.3898 23.056 35.1839 23.056V21.056ZM33.3928 20.8416C32.8666 20.7202 32.3372 20.5156 31.8036 20.2208L30.8363 21.9712C31.5187 22.3484 32.2213 22.6238 32.9431 22.7904L33.3928 20.8416ZM31.8135 20.2263C31.2947 19.9318 30.7261 19.5195 30.1077 18.9766L28.7881 20.4794C29.4818 21.0885 30.1612 21.5882 30.8263 21.9657L31.8135 20.2263ZM30.1169 18.9847C29.5028 18.432 28.8027 17.7404 28.0153 16.9058L26.5605 18.2782C27.3732 19.1396 28.1131 19.872 28.779 20.4713L30.1169 18.9847ZM27.5316 18.5619L32.4996 17.3139L32.0123 15.3741L27.0443 16.6221L27.5316 18.5619ZM31.4273 16.9039C31.8438 17.5202 32.2388 18.034 32.6118 18.4257L34.0601 17.0463C33.7931 16.766 33.4681 16.3518 33.0845 15.7841L31.4273 16.9039ZM32.6118 18.4257C32.9866 18.8192 33.3955 19.1473 33.8439 19.3597L34.7 17.5523C34.5404 17.4767 34.3253 17.3248 34.0601 17.0463L32.6118 18.4257ZM33.8616 19.3679C34.311 19.5702 34.7869 19.672 35.2799 19.672V17.672C35.069 17.672 34.8729 17.6298 34.6823 17.5441L33.8616 19.3679ZM35.2799 19.672C36.5254 19.672 37.6193 19.134 38.5383 18.1958L37.1096 16.7962C36.4926 17.426 35.8904 17.672 35.2799 17.672V19.672ZM37.0594 18.1406L39.1234 20.5886L40.6525 19.2994L38.5885 16.8514L37.0594 18.1406ZM39.1183 19.3055C38.1561 20.4654 36.8801 21.056 35.1839 21.056V23.056C37.4238 23.056 39.2838 22.2386 40.6576 20.5825L39.1183 19.3055ZM29.6879 15.4C30.447 15.4 31.1697 15.2666 31.8447 14.9887L31.0832 13.1393C30.6702 13.3094 30.2089 13.4 29.6879 13.4V15.4ZM31.8353 14.9925C32.5211 14.7182 33.1219 14.3201 33.6248 13.7971L32.1831 12.4109C31.886 12.7199 31.5268 12.9618 31.0925 13.1355L31.8353 14.9925ZM33.6243 13.7976C34.1393 13.2628 34.53 12.6334 34.7992 11.9219L32.9287 11.2141C32.7499 11.6866 32.5005 12.0812 32.1836 12.4104L33.6243 13.7976ZM34.7907 11.9437C35.0848 11.2181 35.2239 10.4325 35.2239 9.6H33.2239C33.2239 10.2075 33.123 10.7339 32.9372 11.1923L34.7907 11.9437ZM35.2239 9.6C35.2239 8.75529 35.0861 7.96507 34.787 7.24738L32.9409 8.01662C33.1218 8.45093 33.2239 8.97271 33.2239 9.6H35.2239ZM34.7992 7.27811C34.5289 6.56374 34.1347 5.93657 33.611 5.41289L32.1968 6.82711C32.5052 7.13543 32.751 7.51626 32.9287 7.98589L34.7992 7.27811ZM33.6377 5.44059C33.1344 4.897 32.5296 4.48524 31.8353 4.20752L31.0925 6.06448C31.5182 6.23476 31.8735 6.479 32.1702 6.79941L33.6377 5.44059ZM31.8447 4.21132C31.1697 3.93337 30.447 3.8 29.6879 3.8V5.8C30.2089 5.8 30.6702 5.89063 31.0832 6.06068L31.8447 4.21132ZM29.6879 3.8C28.9286 3.8 28.2018 3.93344 27.5165 4.20752L28.2593 6.06448C28.6941 5.89056 29.1673 5.8 29.6879 5.8V3.8ZM27.5072 4.21132C26.8327 4.48905 26.2377 4.89667 25.7276 5.42636L27.1683 6.81364C27.4902 6.47933 27.8552 6.23095 28.2687 6.06068L27.5072 4.21132ZM25.7271 5.42689C25.2299 5.94395 24.8439 6.55897 24.5612 7.25629L26.4147 8.0077C26.612 7.52103 26.8659 7.12805 27.1688 6.81311L25.7271 5.42689ZM24.5559 7.26955C24.2793 7.98087 24.1519 8.76315 24.1519 9.6H26.1519C26.1519 8.96485 26.2486 8.43513 26.4199 7.99445L24.5559 7.26955ZM24.1519 9.6C24.1519 10.4244 24.2804 11.2024 24.5527 11.9219L26.4232 11.2141C26.2475 10.7496 26.1519 10.2156 26.1519 9.6H24.1519ZM24.5612 11.9437C24.8428 12.6382 25.2253 13.2554 25.7142 13.7834L27.1817 12.4246C26.8706 12.0886 26.6131 11.6818 26.4147 11.1923L24.5612 11.9437ZM25.7408 13.8111C26.2502 14.3205 26.8411 14.7144 27.5072 14.9887L28.2687 13.1393C27.8468 12.9656 27.4777 12.7195 27.155 12.3969L25.7408 13.8111ZM27.5165 14.9925C28.2018 15.2666 28.9286 15.4 29.6879 15.4V13.4C29.1673 13.4 28.6941 13.3094 28.2593 13.1355L27.5165 14.9925Z" fill="url(#paint0_linear_27_3)"/>
<defs>
<linearGradient id="paint0_linear_27_3" x1="-1" y1="-5" x2="40" y2="24" gradientUnits="userSpaceOnUse">
<stop stop-color="#BFDBFE"/>
<stop offset="1" stop-color="#475569"/>
</linearGradient>
</defs>
</svg>
