<svg width="563" height="61" viewBox="0 0 563 61" fill="none" xmlns="http://www.w3.org/2000/svg">
<path d="M14.552 48L0.024 3.2H13.08L25.304 41.984H18.712L31.576 3.2H43.224L55.384 41.984H49.048L61.656 3.2H73.752L59.224 48H45.656L35.288 15.04H38.936L28.12 48H14.552ZM96.53 48.576C92.434 48.576 88.85 47.808 85.778 46.272C82.7487 44.6933 80.3807 42.56 78.674 39.872C77.01 37.1413 76.178 34.048 76.178 30.592C76.178 27.136 76.9887 24.064 78.61 21.376C80.274 18.6453 82.5567 16.5333 85.458 15.04C88.3593 13.504 91.6233 12.736 95.25 12.736C98.6633 12.736 101.778 13.44 104.594 14.848C107.41 16.2133 109.65 18.24 111.314 20.928C112.978 23.616 113.81 26.88 113.81 30.72C113.81 31.1467 113.789 31.6373 113.746 32.192C113.703 32.7467 113.661 33.2587 113.618 33.728H86.162V27.328H107.154L102.546 29.12C102.589 27.5413 102.29 26.176 101.65 25.024C101.053 23.872 100.199 22.976 99.09 22.336C98.0233 21.696 96.7647 21.376 95.314 21.376C93.8633 21.376 92.5833 21.696 91.474 22.336C90.4073 22.976 89.5753 23.8933 88.978 25.088C88.3807 26.24 88.082 27.6053 88.082 29.184V31.04C88.082 32.7467 88.4233 34.2187 89.106 35.456C89.8313 36.6933 90.8553 37.6533 92.178 38.336C93.5007 38.976 95.0793 39.296 96.914 39.296C98.6207 39.296 100.071 39.0613 101.266 38.592C102.503 38.08 103.719 37.312 104.914 36.288L111.314 42.944C109.65 44.7787 107.602 46.1867 105.17 47.168C102.738 48.1067 99.858 48.576 96.53 48.576ZM144.441 48.576C141.326 48.576 138.723 47.936 136.633 46.656C134.585 45.376 133.049 43.4133 132.025 40.768C131.001 38.1227 130.489 34.7307 130.489 30.592C130.489 26.5387 131.022 23.1893 132.089 20.544C133.198 17.8987 134.798 15.936 136.889 14.656C138.979 13.376 141.497 12.736 144.441 12.736C147.598 12.736 150.457 13.4613 153.017 14.912C155.619 16.3627 157.667 18.432 159.161 21.12C160.697 23.7653 161.465 26.9227 161.465 30.592C161.465 34.304 160.697 37.504 159.161 40.192C157.667 42.8373 155.619 44.9067 153.017 46.4C150.457 47.8507 147.598 48.576 144.441 48.576ZM122.617 48V0.511997H134.777V19.136L134.137 30.592L134.201 42.048V48H122.617ZM141.881 38.912C143.246 38.912 144.462 38.592 145.529 37.952C146.638 37.312 147.513 36.3733 148.153 35.136C148.835 33.856 149.177 32.3413 149.177 30.592C149.177 28.8427 148.835 27.3707 148.153 26.176C147.513 24.9387 146.638 24 145.529 23.36C144.462 22.72 143.246 22.4 141.881 22.4C140.515 22.4 139.278 22.72 138.169 23.36C137.102 24 136.227 24.9387 135.545 26.176C134.905 27.3707 134.585 28.8427 134.585 30.592C134.585 32.3413 134.905 33.856 135.545 35.136C136.227 36.3733 137.102 37.312 138.169 37.952C139.278 38.592 140.515 38.912 141.881 38.912ZM192.718 48V3.2H213.902C218.851 3.2 223.203 4.11733 226.958 5.952C230.712 7.78667 233.635 10.368 235.726 13.696C237.859 17.024 238.926 20.992 238.926 25.6C238.926 30.1653 237.859 34.1333 235.726 37.504C233.635 40.832 230.712 43.4133 226.958 45.248C223.203 47.0827 218.851 48 213.902 48H192.718ZM205.39 37.888H213.39C215.95 37.888 218.168 37.4187 220.046 36.48C221.966 35.4987 223.459 34.0907 224.526 32.256C225.592 30.3787 226.126 28.16 226.126 25.6C226.126 22.9973 225.592 20.7787 224.526 18.944C223.459 17.1093 221.966 15.7227 220.046 14.784C218.168 13.8027 215.95 13.312 213.39 13.312H205.39V37.888ZM266.393 48.576C262.297 48.576 258.713 47.808 255.641 46.272C252.611 44.6933 250.243 42.56 248.536 39.872C246.873 37.1413 246.041 34.048 246.041 30.592C246.041 27.136 246.851 24.064 248.473 21.376C250.137 18.6453 252.419 16.5333 255.321 15.04C258.222 13.504 261.486 12.736 265.113 12.736C268.526 12.736 271.641 13.44 274.457 14.848C277.273 16.2133 279.513 18.24 281.177 20.928C282.841 23.616 283.673 26.88 283.673 30.72C283.673 31.1467 283.651 31.6373 283.609 32.192C283.566 32.7467 283.523 33.2587 283.481 33.728H256.025V27.328H277.017L272.409 29.12C272.451 27.5413 272.153 26.176 271.513 25.024C270.915 23.872 270.062 22.976 268.953 22.336C267.886 21.696 266.627 21.376 265.177 21.376C263.726 21.376 262.446 21.696 261.337 22.336C260.27 22.976 259.438 23.8933 258.841 25.088C258.243 26.24 257.945 27.6053 257.945 29.184V31.04C257.945 32.7467 258.286 34.2187 258.969 35.456C259.694 36.6933 260.718 37.6533 262.041 38.336C263.363 38.976 264.942 39.296 266.777 39.296C268.483 39.296 269.934 39.0613 271.129 38.592C272.366 38.08 273.582 37.312 274.777 36.288L281.177 42.944C279.513 44.7787 277.465 46.1867 275.033 47.168C272.601 48.1067 269.721 48.576 266.393 48.576ZM301.518 48L287.246 13.312H299.726L311.118 42.304H304.846L316.814 13.312H328.398L314.062 48H301.518ZM351.98 48.576C347.884 48.576 344.3 47.808 341.228 46.272C338.199 44.6933 335.831 42.56 334.124 39.872C332.46 37.1413 331.628 34.048 331.628 30.592C331.628 27.136 332.439 24.064 334.06 21.376C335.724 18.6453 338.007 16.5333 340.908 15.04C343.809 13.504 347.073 12.736 350.7 12.736C354.113 12.736 357.228 13.44 360.044 14.848C362.86 16.2133 365.1 18.24 366.764 20.928C368.428 23.616 369.26 26.88 369.26 30.72C369.26 31.1467 369.239 31.6373 369.196 32.192C369.153 32.7467 369.111 33.2587 369.068 33.728H341.612V27.328H362.604L357.996 29.12C358.039 27.5413 357.74 26.176 357.1 25.024C356.503 23.872 355.649 22.976 354.54 22.336C353.473 21.696 352.215 21.376 350.764 21.376C349.313 21.376 348.033 21.696 346.924 22.336C345.857 22.976 345.025 23.8933 344.428 25.088C343.831 26.24 343.532 27.6053 343.532 29.184V31.04C343.532 32.7467 343.873 34.2187 344.556 35.456C345.281 36.6933 346.305 37.6533 347.628 38.336C348.951 38.976 350.529 39.296 352.364 39.296C354.071 39.296 355.521 39.0613 356.716 38.592C357.953 38.08 359.169 37.312 360.364 36.288L366.764 42.944C365.1 44.7787 363.052 46.1867 360.62 47.168C358.188 48.1067 355.308 48.576 351.98 48.576ZM378.067 48V0.511997H390.227V48H378.067ZM418.737 48.576C414.94 48.576 411.569 47.808 408.625 46.272C405.681 44.736 403.356 42.624 401.649 39.936C399.985 37.2053 399.153 34.0907 399.153 30.592C399.153 27.0933 399.985 24 401.649 21.312C403.356 18.624 405.681 16.5333 408.625 15.04C411.569 13.504 414.94 12.736 418.737 12.736C422.534 12.736 425.905 13.504 428.849 15.04C431.836 16.5333 434.161 18.624 435.825 21.312C437.489 24 438.321 27.0933 438.321 30.592C438.321 34.0907 437.489 37.2053 435.825 39.936C434.161 42.624 431.836 44.736 428.849 46.272C425.905 47.808 422.534 48.576 418.737 48.576ZM418.737 38.912C420.145 38.912 421.382 38.592 422.449 37.952C423.558 37.312 424.433 36.3733 425.073 35.136C425.713 33.856 426.033 32.3413 426.033 30.592C426.033 28.8427 425.713 27.3707 425.073 26.176C424.433 24.9387 423.558 24 422.449 23.36C421.382 22.72 420.145 22.4 418.737 22.4C417.372 22.4 416.134 22.72 415.025 23.36C413.958 24 413.084 24.9387 412.401 26.176C411.761 27.3707 411.441 28.8427 411.441 30.592C411.441 32.3413 411.761 33.856 412.401 35.136C413.084 36.3733 413.958 37.312 415.025 37.952C416.134 38.592 417.372 38.912 418.737 38.912ZM468.978 48.576C466.034 48.576 463.517 47.936 461.426 46.656C459.335 45.3333 457.735 43.3707 456.626 40.768C455.559 38.1227 455.026 34.752 455.026 30.656C455.026 26.5173 455.538 23.1467 456.562 20.544C457.586 17.8987 459.122 15.936 461.17 14.656C463.261 13.376 465.863 12.736 468.978 12.736C472.135 12.736 474.994 13.4827 477.554 14.976C480.157 16.4267 482.205 18.496 483.698 21.184C485.234 23.8293 486.002 26.9867 486.002 30.656C486.002 34.3253 485.234 37.504 483.698 40.192C482.205 42.88 480.157 44.9493 477.554 46.4C474.994 47.8507 472.135 48.576 468.978 48.576ZM447.154 60.416V13.312H458.738V19.2L458.674 30.656L459.314 42.176V60.416H447.154ZM466.418 38.912C467.783 38.912 468.999 38.592 470.066 37.952C471.175 37.312 472.05 36.3733 472.69 35.136C473.373 33.8987 473.714 32.4053 473.714 30.656C473.714 28.9067 473.373 27.4133 472.69 26.176C472.05 24.9387 471.175 24 470.066 23.36C468.999 22.72 467.783 22.4 466.418 22.4C465.053 22.4 463.815 22.72 462.706 23.36C461.639 24 460.765 24.9387 460.082 26.176C459.442 27.4133 459.122 28.9067 459.122 30.656C459.122 32.4053 459.442 33.8987 460.082 35.136C460.765 36.3733 461.639 37.312 462.706 37.952C463.815 38.592 465.053 38.912 466.418 38.912ZM513.03 48.576C508.934 48.576 505.35 47.808 502.278 46.272C499.249 44.6933 496.881 42.56 495.174 39.872C493.51 37.1413 492.678 34.048 492.678 30.592C492.678 27.136 493.489 24.064 495.11 21.376C496.774 18.6453 499.057 16.5333 501.958 15.04C504.859 13.504 508.123 12.736 511.75 12.736C515.163 12.736 518.278 13.44 521.094 14.848C523.91 16.2133 526.15 18.24 527.814 20.928C529.478 23.616 530.31 26.88 530.31 30.72C530.31 31.1467 530.289 31.6373 530.246 32.192C530.203 32.7467 530.161 33.2587 530.118 33.728H502.662V27.328H523.654L519.046 29.12C519.089 27.5413 518.79 26.176 518.15 25.024C517.553 23.872 516.699 22.976 515.59 22.336C514.523 21.696 513.265 21.376 511.814 21.376C510.363 21.376 509.083 21.696 507.974 22.336C506.907 22.976 506.075 23.8933 505.478 25.088C504.881 26.24 504.582 27.6053 504.582 29.184V31.04C504.582 32.7467 504.923 34.2187 505.606 35.456C506.331 36.6933 507.355 37.6533 508.678 38.336C510.001 38.976 511.579 39.296 513.414 39.296C515.121 39.296 516.571 39.0613 517.766 38.592C519.003 38.08 520.219 37.312 521.414 36.288L527.814 42.944C526.15 44.7787 524.102 46.1867 521.67 47.168C519.238 48.1067 516.358 48.576 513.03 48.576ZM539.117 48V13.312H550.701V23.424L548.973 20.544C549.997 17.9413 551.661 16 553.965 14.72C556.269 13.3973 559.063 12.736 562.349 12.736V23.68C561.794 23.5947 561.303 23.552 560.877 23.552C560.493 23.5093 560.066 23.488 559.597 23.488C557.122 23.488 555.117 24.1707 553.581 25.536C552.045 26.8587 551.277 29.0347 551.277 32.064V48H539.117Z" fill="black"/>
<path d="M14.552 48L12.6495 48.6169L13.098 50H14.552V48ZM0.024 3.2V1.2H-2.7271L-1.87847 3.81694L0.024 3.2ZM13.08 3.2L14.9875 2.59879L14.5466 1.2H13.08V3.2ZM25.304 41.984V43.984H28.0314L27.2115 41.3828L25.304 41.984ZM18.712 41.984L16.8137 41.3544L15.9415 43.984H18.712V41.984ZM31.576 3.2V1.2H30.1322L29.6777 2.57036L31.576 3.2ZM43.224 3.2L45.1324 2.60165L44.6929 1.2H43.224V3.2ZM55.384 41.984V43.984H58.1071L57.2924 41.3857L55.384 41.984ZM49.048 41.984L47.146 41.3657L46.2948 43.984H49.048V41.984ZM61.656 3.2V1.2H60.2031L59.754 2.58168L61.656 3.2ZM73.752 3.2L75.6545 3.81694L76.5031 1.2H73.752V3.2ZM59.224 48V50H60.678L61.1265 48.6169L59.224 48ZM45.656 48L43.7482 48.6001L44.1885 50H45.656V48ZM35.288 15.04V13.04H32.5623L33.3802 15.6401L35.288 15.04ZM38.936 15.04L40.8363 15.6636L41.6972 13.04H38.936V15.04ZM28.12 48V50H29.5686L30.0203 48.6236L28.12 48ZM16.4545 47.3831L1.92647 2.58305L-1.87847 3.81694L12.6495 48.6169L16.4545 47.3831ZM0.024 5.2H13.08V1.2H0.024V5.2ZM11.1725 3.8012L23.3965 42.5852L27.2115 41.3828L14.9875 2.59879L11.1725 3.8012ZM25.304 39.984H18.712V43.984H25.304V39.984ZM20.6103 42.6136L33.4743 3.82963L29.6777 2.57036L16.8137 41.3544L20.6103 42.6136ZM31.576 5.2H43.224V1.2H31.576V5.2ZM41.3156 3.79834L53.4756 42.5823L57.2924 41.3857L45.1324 2.60165L41.3156 3.79834ZM55.384 39.984H49.048V43.984H55.384V39.984ZM50.95 42.6023L63.558 3.81831L59.754 2.58168L47.146 41.3657L50.95 42.6023ZM61.656 5.2H73.752V1.2H61.656V5.2ZM71.8495 2.58305L57.3215 47.3831L61.1265 48.6169L75.6545 3.81694L71.8495 2.58305ZM59.224 46H45.656V50H59.224V46ZM47.5638 47.3999L37.1958 14.4399L33.3802 15.6401L43.7482 48.6001L47.5638 47.3999ZM35.288 17.04H38.936V13.04H35.288V17.04ZM37.0357 14.4164L26.2197 47.3764L30.0203 48.6236L40.8363 15.6636L37.0357 14.4164ZM28.12 46H14.552V50H28.12V46ZM85.778 46.272L84.8537 48.0456L84.8686 48.0534L84.8836 48.0609L85.778 46.272ZM78.674 39.872L76.9661 40.9127L76.9757 40.9285L76.9856 40.944L78.674 39.872ZM78.61 21.376L76.9021 20.3352L76.8974 20.343L78.61 21.376ZM85.458 15.04L86.3733 16.8183L86.3836 16.813L86.3938 16.8076L85.458 15.04ZM104.594 14.848L103.7 16.6369L103.71 16.6423L103.721 16.6476L104.594 14.848ZM111.314 20.928L113.015 19.8753L111.314 20.928ZM113.746 32.192L115.74 32.3454L113.746 32.192ZM113.618 33.728V35.728H115.444L115.61 33.9091L113.618 33.728ZM86.162 33.728H84.162V35.728H86.162V33.728ZM86.162 27.328V25.328H84.162V27.328H86.162ZM107.154 27.328L107.879 29.192L107.154 25.328V27.328ZM102.546 29.12L100.547 29.066L100.465 32.075L103.271 30.984L102.546 29.12ZM101.65 25.024L99.8745 25.9446L99.8877 25.9702L99.9017 25.9953L101.65 25.024ZM99.09 22.336L98.061 24.051L98.0757 24.0598L98.0906 24.0684L99.09 22.336ZM91.474 22.336L90.4746 20.6036L90.4597 20.6122L90.445 20.621L91.474 22.336ZM88.978 25.088L90.7535 26.0086L90.7603 25.9956L90.7669 25.9824L88.978 25.088ZM89.106 35.456L87.3548 36.4222L87.3674 36.445L87.3806 36.4674L89.106 35.456ZM92.178 38.336L91.2607 40.1132L91.2836 40.1251L91.3069 40.1363L92.178 38.336ZM101.266 38.592L101.997 40.4535L102.014 40.4469L102.031 40.44L101.266 38.592ZM104.914 36.288L106.356 34.9018L105.047 33.5403L103.612 34.7695L104.914 36.288ZM111.314 42.944L112.795 44.2876L114.05 42.9041L112.756 41.5578L111.314 42.944ZM105.17 47.168L105.89 49.0338L105.904 49.0284L105.918 49.0227L105.17 47.168ZM96.53 46.576C92.6852 46.576 89.4181 45.856 86.6724 44.4831L84.8836 48.0609C88.2819 49.76 92.1828 50.576 96.53 50.576V46.576ZM86.7023 44.4984C83.9614 43.07 81.8668 41.1694 80.3624 38.8L76.9856 40.944C78.8945 43.9506 81.5359 46.3166 84.8537 48.0456L86.7023 44.4984ZM80.3819 38.8313C78.9243 36.4394 78.178 33.7116 78.178 30.592H74.178C74.178 34.3844 75.0957 37.8433 76.9661 40.9127L80.3819 38.8313ZM78.178 30.592C78.178 27.4622 78.9079 24.7543 80.3226 22.409L76.8974 20.343C75.0694 23.3737 74.178 26.8098 74.178 30.592H78.178ZM80.3179 22.4167C81.7864 20.0068 83.7919 18.1469 86.3733 16.8183L84.5427 13.2617C81.3214 14.9197 78.7616 17.2839 76.9021 20.3353L80.3179 22.4167ZM86.3938 16.8076C88.9775 15.4397 91.9147 14.736 95.25 14.736V10.736C91.3319 10.736 87.7411 11.5683 84.5222 13.2724L86.3938 16.8076ZM95.25 14.736C98.3795 14.736 101.184 15.3792 103.7 16.6369L105.488 13.0591C102.372 11.5008 98.9472 10.736 95.25 10.736V14.736ZM103.721 16.6476C106.193 17.8457 108.147 19.6117 109.613 21.9807L113.015 19.8753C111.153 16.8683 108.627 14.5809 105.467 13.0484L103.721 16.6476ZM109.613 21.9807C111.043 24.2906 111.81 27.1718 111.81 30.72H115.81C115.81 26.5882 114.913 22.9413 113.015 19.8753L109.613 21.9807ZM111.81 30.72C111.81 31.0829 111.792 31.5206 111.752 32.0386L115.74 32.3454C115.786 31.7541 115.81 31.2105 115.81 30.72H111.81ZM111.752 32.0386C111.71 32.5856 111.668 33.0883 111.626 33.5469L115.61 33.9091C115.653 33.4291 115.697 32.9077 115.74 32.3454L111.752 32.0386ZM113.618 31.728H86.162V35.728H113.618V31.728ZM88.162 33.728V27.328H84.162V33.728H88.162ZM86.162 29.328H107.154V25.328H86.162V29.328ZM106.429 25.464L101.821 27.256L103.271 30.984L107.879 29.192L106.429 25.464ZM104.545 29.174C104.596 27.3086 104.244 25.5748 103.398 24.0527L99.9017 25.9953C100.336 26.7772 100.582 27.7741 100.547 29.066L104.545 29.174ZM103.426 24.1034C102.655 22.617 101.534 21.4372 100.089 20.6036L98.0906 24.0684C98.8644 24.5148 99.4505 25.127 99.8745 25.9446L103.426 24.1034ZM100.119 20.621C98.693 19.7654 97.0661 19.376 95.314 19.376V23.376C96.4632 23.376 97.3536 23.6266 98.061 24.051L100.119 20.621ZM95.314 19.376C93.5599 19.376 91.9264 19.766 90.4746 20.6036L92.4734 24.0684C93.2403 23.626 94.1668 23.376 95.314 23.376V19.376ZM90.445 20.621C89.028 21.4712 87.9435 22.6849 87.1891 24.1936L90.7669 25.9824C91.2072 25.1018 91.7867 24.4808 92.503 24.051L90.445 20.621ZM87.2025 24.1674C86.429 25.659 86.082 27.3535 86.082 29.184H90.082C90.082 27.8572 90.3323 26.821 90.7535 26.0086L87.2025 24.1674ZM86.082 29.184V31.04H90.082V29.184H86.082ZM86.082 31.04C86.082 33.0147 86.4782 34.8333 87.3548 36.4222L90.8572 34.4898C90.3684 33.604 90.082 32.4786 90.082 31.04H86.082ZM87.3806 36.4674C88.3049 38.0441 89.615 39.2638 91.2607 40.1132L93.0953 36.5588C92.0957 36.0428 91.3578 35.3425 90.8314 34.4446L87.3806 36.4674ZM91.3069 40.1363C92.9601 40.9363 94.8508 41.296 96.914 41.296V37.296C95.3079 37.296 94.0413 37.0157 93.0491 36.5357L91.3069 40.1363ZM96.914 41.296C98.7931 41.296 100.507 41.0391 101.997 40.4535L100.535 36.7305C99.6359 37.0836 98.4482 37.296 96.914 37.296V41.296ZM102.031 40.44C103.494 39.8345 104.888 38.9446 106.216 37.8065L103.612 34.7695C102.551 35.6794 101.513 36.3255 100.501 36.744L102.031 40.44ZM103.472 37.6742L109.872 44.3302L112.756 41.5578L106.356 34.9018L103.472 37.6742ZM109.833 41.6004C108.383 43.1985 106.591 44.4381 104.422 45.3133L105.918 49.0227C108.613 47.9353 110.917 46.3588 112.795 44.2876L109.833 41.6004ZM104.45 45.3022C102.301 46.1314 99.6768 46.576 96.53 46.576V50.576C100.039 50.576 103.175 50.0819 105.89 49.0338L104.45 45.3022ZM136.633 46.656L135.573 48.352L135.58 48.3569L135.588 48.3617L136.633 46.656ZM132.025 40.768L130.159 41.49L132.025 40.768ZM132.089 20.544L130.244 19.7705L130.239 19.7833L130.234 19.7961L132.089 20.544ZM136.889 14.656L135.844 12.9503V12.9503L136.889 14.656ZM153.017 14.912L152.03 16.6521L152.043 16.659L153.017 14.912ZM159.161 21.12L157.412 22.0913L157.421 22.1079L157.431 22.1243L159.161 21.12ZM159.161 40.192L157.424 39.1997L157.419 39.2088L159.161 40.192ZM153.017 46.4L154.003 48.1401L154.012 48.1347L153.017 46.4ZM122.617 48H120.617V50H122.617V48ZM122.617 0.511997V-1.488H120.617V0.511997H122.617ZM134.777 0.511997H136.777V-1.488H134.777V0.511997ZM134.777 19.136L136.773 19.2476L136.777 19.1918V19.136H134.777ZM134.137 30.592L132.14 30.4804L132.136 30.5418L132.137 30.6032L134.137 30.592ZM134.201 42.048H136.201L136.2 42.0368L134.201 42.048ZM134.201 48V50H136.201V48H134.201ZM145.529 37.952L144.529 36.2196L144.514 36.2282L144.5 36.237L145.529 37.952ZM148.152 35.136L146.388 34.1948L146.382 34.206L146.376 34.2172L148.152 35.136ZM148.152 26.176L146.376 27.0948L146.395 27.132L146.416 27.1683L148.152 26.176ZM145.529 23.36L144.5 25.075L144.514 25.0838L144.529 25.0924L145.529 23.36ZM138.169 23.36L137.169 21.6276L137.154 21.6362L137.14 21.645L138.169 23.36ZM135.544 26.176L133.793 25.2098L133.787 25.2207L133.782 25.2316L135.544 26.176ZM135.544 35.136L133.756 36.0304L133.774 36.0667L133.793 36.1022L135.544 35.136ZM138.169 37.952L137.14 39.667L137.154 39.6758L137.169 39.6844L138.169 37.952ZM144.441 46.576C141.596 46.576 139.379 45.9922 137.677 44.9503L135.588 48.3617C138.068 49.8798 141.056 50.576 144.441 50.576V46.576ZM137.693 44.96C136.072 43.9473 134.786 42.361 133.89 40.046L130.159 41.49C131.311 44.4656 133.097 46.8047 135.573 48.352L137.693 44.96ZM133.89 40.046C132.986 37.7109 132.488 34.5871 132.488 30.592H128.488C128.488 34.8742 129.015 38.5344 130.159 41.49L133.89 40.046ZM132.488 30.592C132.488 26.6954 133.004 23.622 133.943 21.2919L130.234 19.7961C129.04 22.7567 128.488 26.3819 128.488 30.592H132.488ZM133.933 21.3175C134.908 18.9912 136.258 17.387 137.933 16.3617L135.844 12.9503C133.338 14.485 131.487 16.8062 130.244 19.7705L133.933 21.3175ZM137.933 16.3617C139.651 15.3097 141.791 14.736 144.441 14.736V10.736C141.202 10.736 138.307 11.4423 135.844 12.9503L137.933 16.3617ZM144.441 14.736C147.278 14.736 149.793 15.3842 152.03 16.652L154.003 13.172C151.12 11.5385 147.917 10.736 144.441 10.736V14.736ZM152.043 16.659C154.309 17.9222 156.094 19.718 157.412 22.0913L160.909 20.1487C159.241 17.146 156.929 14.8031 153.99 13.165L152.043 16.659ZM157.431 22.1243C158.757 24.4089 159.465 27.2049 159.465 30.592H163.465C163.465 26.6404 162.636 23.1218 160.89 20.1157L157.431 22.1243ZM159.465 30.592C159.465 34.0252 158.756 36.8689 157.424 39.1997L160.897 41.1843C162.637 38.1391 163.465 34.5828 163.465 30.592H159.465ZM157.419 39.2088C156.1 41.5452 154.308 43.3531 152.021 44.6653L154.012 48.1347C156.93 46.4602 159.234 44.1295 160.902 41.1752L157.419 39.2088ZM152.03 44.66C149.793 45.9278 147.278 46.576 144.441 46.576V50.576C147.917 50.576 151.12 49.7735 154.003 48.14L152.03 44.66ZM124.617 48V0.511997H120.617V48H124.617ZM122.617 2.512H134.777V-1.488H122.617V2.512ZM132.777 0.511997V19.136H136.777V0.511997H132.777ZM132.78 19.0244L132.14 30.4804L136.133 30.7036L136.773 19.2476L132.78 19.0244ZM132.137 30.6032L132.201 42.0592L136.2 42.0368L136.136 30.5808L132.137 30.6032ZM132.201 42.048V48H136.201V42.048H132.201ZM134.201 46H122.617V50H134.201V46ZM141.881 40.912C143.572 40.912 145.15 40.5114 146.557 39.667L144.5 36.237C143.774 36.6726 142.92 36.912 141.881 36.912V40.912ZM146.528 39.6844C147.998 38.8364 149.129 37.6011 149.929 36.0548L146.376 34.2172C145.896 35.1456 145.278 35.7876 144.529 36.2196L146.528 39.6844ZM149.917 36.0772C150.783 34.4536 151.176 32.6025 151.176 30.592H147.176C147.176 32.0802 146.887 33.2584 146.388 34.1948L149.917 36.0772ZM151.176 30.592C151.176 28.5873 150.785 26.752 149.889 25.1837L146.416 27.1683C146.885 27.9893 147.176 29.098 147.176 30.592H151.176ZM149.929 25.2572C149.129 23.7109 147.998 22.4756 146.528 21.6276L144.529 25.0924C145.278 25.5244 145.896 26.1664 146.376 27.0948L149.929 25.2572ZM146.557 21.645C145.15 20.8006 143.572 20.4 141.881 20.4V24.4C142.92 24.4 143.774 24.6394 144.5 25.075L146.557 21.645ZM141.881 20.4C140.188 20.4 138.602 20.8007 137.169 21.6276L139.168 25.0924C139.953 24.6393 140.842 24.4 141.881 24.4V20.4ZM137.14 21.645C135.731 22.4901 134.623 23.7064 133.793 25.2098L137.296 27.1422C137.831 26.171 138.473 25.5099 139.197 25.075L137.14 21.645ZM133.782 25.2316C132.947 26.789 132.585 28.6062 132.585 30.592H136.585C136.585 29.0791 136.862 27.9524 137.307 27.1204L133.782 25.2316ZM132.585 30.592C132.585 32.5839 132.949 34.4177 133.756 36.0304L137.333 34.2416C136.86 33.2943 136.585 32.0988 136.585 30.592H132.585ZM133.793 36.1022C134.623 37.6056 135.731 38.8219 137.14 39.667L139.197 36.237C138.473 35.8021 137.831 35.141 137.296 34.1698L133.793 36.1022ZM137.169 39.6844C138.602 40.5113 140.188 40.912 141.881 40.912V36.912C140.842 36.912 139.953 36.6727 139.168 36.2196L137.169 39.6844ZM192.717 48H190.717V50H192.717V48ZM192.717 3.2V1.2H190.717V3.2H192.717ZM226.958 5.952L226.079 7.74895L226.958 5.952ZM235.726 13.696L234.032 14.7599L234.037 14.7676L234.042 14.7753L235.726 13.696ZM235.726 37.504L234.036 36.4344L234.032 36.4401L235.726 37.504ZM205.389 37.888H203.389V39.888H205.389V37.888ZM220.046 36.48L220.94 38.2689L220.948 38.2649L220.956 38.2609L220.046 36.48ZM224.526 32.256L226.255 33.2612L226.26 33.2527L226.264 33.244L224.526 32.256ZM224.526 18.944L226.255 17.9388V17.9388L224.526 18.944ZM220.046 14.784L219.119 16.5564L219.143 16.5689L219.167 16.5808L220.046 14.784ZM205.389 13.312V11.312H203.389V13.312H205.389ZM194.717 48V3.2H190.717V48H194.717ZM192.717 5.2H213.902V1.2H192.717V5.2ZM213.902 5.2C218.602 5.2 222.644 6.07034 226.079 7.74895L227.836 4.15505C223.762 2.16432 219.1 1.2 213.902 1.2V5.2ZM226.079 7.74895C229.521 9.43082 232.152 11.7677 234.032 14.7599L237.419 12.6321C235.117 8.96833 231.903 6.14252 227.836 4.15505L226.079 7.74895ZM234.042 14.7753C235.936 17.7308 236.926 21.31 236.926 25.6H240.926C240.926 20.674 239.781 16.3172 237.409 12.6167L234.042 14.7753ZM236.926 25.6C236.926 29.8427 235.938 33.428 234.036 36.4344L237.415 38.5736C239.779 34.8387 240.926 30.488 240.926 25.6H236.926ZM234.032 36.4401C232.152 39.4323 229.521 41.7692 226.079 43.4511L227.836 47.0449C231.903 45.0575 235.117 42.2317 237.419 38.5679L234.032 36.4401ZM226.079 43.4511C222.644 45.1297 218.602 46 213.902 46V50C219.1 50 223.762 49.0357 227.836 47.0449L226.079 43.4511ZM213.902 46H192.717V50H213.902V46ZM205.389 39.888H213.389V35.888H205.389V39.888ZM213.389 39.888C216.193 39.888 218.73 39.3736 220.94 38.2689L219.151 34.6911C217.606 35.4638 215.706 35.888 213.389 35.888V39.888ZM220.956 38.2609C223.212 37.1079 224.992 35.4332 226.255 33.2612L222.796 31.2508C221.926 32.7481 220.719 33.8895 219.135 34.6991L220.956 38.2609ZM226.264 33.244C227.531 31.014 228.126 28.4419 228.126 25.6H224.126C224.126 27.8781 223.653 29.7433 222.787 31.268L226.264 33.244ZM228.126 25.6C228.126 22.7237 227.535 20.1408 226.255 17.9388L222.796 19.9492C223.65 21.4165 224.126 23.2709 224.126 25.6H228.126ZM226.255 17.9388C224.987 15.7593 223.197 14.0984 220.924 12.9872L219.167 16.5808C220.734 17.3469 221.93 18.4593 222.796 19.9492L226.255 17.9388ZM220.972 13.0115C218.755 11.8526 216.206 11.312 213.389 11.312V15.312C215.693 15.312 217.581 15.7527 219.119 16.5564L220.972 13.0115ZM213.389 11.312H205.389V15.312H213.389V11.312ZM203.389 13.312V37.888H207.389V13.312H203.389ZM255.641 46.272L254.716 48.0456L254.731 48.0534L254.746 48.0609L255.641 46.272ZM248.536 39.872L246.829 40.9127L246.838 40.9285L246.848 40.944L248.536 39.872ZM248.473 21.376L246.765 20.3352L246.76 20.343L248.473 21.376ZM255.32 15.04L256.236 16.8183L256.246 16.813L256.256 16.8076L255.32 15.04ZM274.457 14.848L273.562 16.6369L273.573 16.6423L273.584 16.6476L274.457 14.848ZM281.177 20.928L282.877 19.8753L281.177 20.928ZM283.608 32.192L285.603 32.3454L283.608 32.192ZM283.48 33.728V35.728H285.307L285.472 33.9091L283.48 33.728ZM256.025 33.728H254.025V35.728H256.025V33.728ZM256.025 27.328V25.328H254.025V27.328H256.025ZM277.017 27.328L277.741 29.192L277.017 25.328V27.328ZM272.409 29.12L270.409 29.066L270.328 32.075L273.133 30.984L272.409 29.12ZM271.513 25.024L269.737 25.9446L269.75 25.9702L269.764 25.9953L271.513 25.024ZM268.953 22.336L267.924 24.051L267.938 24.0598L267.953 24.0684L268.953 22.336ZM261.336 22.336L260.337 20.6036L260.322 20.6122L260.307 20.621L261.336 22.336ZM258.841 25.088L260.616 26.0086L260.623 25.9956L260.629 25.9824L258.841 25.088ZM258.969 35.456L257.217 36.4222L257.23 36.445L257.243 36.4674L258.969 35.456ZM262.04 38.336L261.123 40.1132L261.146 40.1251L261.169 40.1363L262.04 38.336ZM271.129 38.592L271.86 40.4535L271.877 40.4469L271.893 40.44L271.129 38.592ZM274.776 36.288L276.218 34.9018L274.909 33.5403L273.475 34.7695L274.776 36.288ZM281.177 42.944L282.658 44.2876L283.913 42.9041L282.618 41.5578L281.177 42.944ZM275.033 47.168L275.753 49.0338L275.767 49.0284L275.781 49.0227L275.033 47.168ZM266.393 46.576C262.548 46.576 259.281 45.856 256.535 44.4831L254.746 48.0609C258.144 49.76 262.045 50.576 266.393 50.576V46.576ZM256.565 44.4984C253.824 43.07 251.729 41.1694 250.225 38.8L246.848 40.944C248.757 43.9506 251.398 46.3166 254.716 48.0456L256.565 44.4984ZM250.244 38.8313C248.787 36.4394 248.04 33.7116 248.04 30.592H244.04C244.04 34.3844 244.958 37.8433 246.829 40.9127L250.244 38.8313ZM248.04 30.592C248.04 27.4622 248.77 24.7543 250.185 22.409L246.76 20.343C244.932 23.3737 244.04 26.8098 244.04 30.592H248.04ZM250.18 22.4167C251.649 20.0068 253.654 18.1469 256.236 16.8183L254.405 13.2617C251.184 14.9197 248.624 17.2839 246.765 20.3353L250.18 22.4167ZM256.256 16.8076C258.84 15.4397 261.777 14.736 265.112 14.736V10.736C261.194 10.736 257.604 11.5683 254.385 13.2724L256.256 16.8076ZM265.112 14.736C268.242 14.736 271.047 15.3792 273.562 16.6369L275.351 13.0591C272.234 11.5008 268.81 10.736 265.112 10.736V14.736ZM273.584 16.6476C276.055 17.8457 278.009 19.6117 279.476 21.9807L282.877 19.8753C281.016 16.8683 278.49 14.5809 275.329 13.0484L273.584 16.6476ZM279.476 21.9807C280.906 24.2906 281.672 27.1718 281.672 30.72H285.672C285.672 26.5882 284.775 22.9413 282.877 19.8753L279.476 21.9807ZM281.672 30.72C281.672 31.0829 281.654 31.5206 281.614 32.0386L285.603 32.3454C285.648 31.7541 285.672 31.2105 285.672 30.72H281.672ZM281.614 32.0386C281.572 32.5856 281.53 33.0883 281.489 33.5469L285.472 33.9091C285.516 33.4291 285.559 32.9077 285.603 32.3454L281.614 32.0386ZM283.48 31.728H256.025V35.728H283.48V31.728ZM258.025 33.728V27.328H254.025V33.728H258.025ZM256.025 29.328H277.017V25.328H256.025V29.328ZM276.292 25.464L271.684 27.256L273.133 30.984L277.741 29.192L276.292 25.464ZM274.408 29.174C274.458 27.3086 274.106 25.5748 273.261 24.0527L269.764 25.9953C270.199 26.7772 270.444 27.7741 270.409 29.066L274.408 29.174ZM273.288 24.1034C272.517 22.617 271.397 21.4372 269.952 20.6036L267.953 24.0684C268.727 24.5148 269.313 25.127 269.737 25.9446L273.288 24.1034ZM269.982 20.621C268.556 19.7654 266.929 19.376 265.177 19.376V23.376C266.326 23.376 267.216 23.6266 267.924 24.051L269.982 20.621ZM265.177 19.376C263.422 19.376 261.789 19.766 260.337 20.6036L262.336 24.0684C263.103 23.626 264.029 23.376 265.177 23.376V19.376ZM260.307 20.621C258.89 21.4712 257.806 22.6849 257.052 24.1936L260.629 25.9824C261.07 25.1018 261.649 24.4808 262.365 24.051L260.307 20.621ZM257.065 24.1674C256.292 25.659 255.944 27.3535 255.944 29.184H259.944C259.944 27.8572 260.195 26.821 260.616 26.0086L257.065 24.1674ZM255.944 29.184V31.04H259.944V29.184H255.944ZM255.944 31.04C255.944 33.0147 256.341 34.8333 257.217 36.4222L260.72 34.4898C260.231 33.604 259.944 32.4786 259.944 31.04H255.944ZM257.243 36.4674C258.167 38.0441 259.478 39.2638 261.123 40.1132L262.958 36.5588C261.958 36.0428 261.22 35.3425 260.694 34.4446L257.243 36.4674ZM261.169 40.1363C262.823 40.9363 264.713 41.296 266.776 41.296V37.296C265.17 37.296 263.904 37.0157 262.912 36.5357L261.169 40.1363ZM266.776 41.296C268.656 41.296 270.369 41.0391 271.86 40.4535L270.397 36.7305C269.498 37.0836 268.311 37.296 266.776 37.296V41.296ZM271.893 40.44C273.357 39.8345 274.75 38.9446 276.078 37.8065L273.475 34.7695C272.413 35.6794 271.375 36.3255 270.364 36.744L271.893 40.44ZM273.335 37.6742L279.735 44.3302L282.618 41.5578L276.218 34.9018L273.335 37.6742ZM279.695 41.6004C278.246 43.1985 276.453 44.4381 274.284 45.3133L275.781 49.0227C278.476 47.9353 280.779 46.3588 282.658 44.2876L279.695 41.6004ZM274.312 45.3022C272.164 46.1314 269.539 46.576 266.393 46.576V50.576C269.902 50.576 273.037 50.0819 275.753 49.0338L274.312 45.3022ZM301.518 48L299.668 48.761L300.178 50H301.518V48ZM287.246 13.312V11.312H284.26L285.396 14.073L287.246 13.312ZM299.726 13.312L301.587 12.5806L301.089 11.312H299.726V13.312ZM311.118 42.304V44.304H314.053L312.979 41.5726L311.118 42.304ZM304.846 42.304L302.997 41.5409L301.857 44.304H304.846V42.304ZM316.814 13.312V11.312H315.476L314.965 12.5489L316.814 13.312ZM328.398 13.312L330.246 14.0759L331.389 11.312H328.398V13.312ZM314.062 48V50H315.4L315.91 48.7639L314.062 48ZM303.368 47.239L289.096 12.551L285.396 14.073L299.668 48.761L303.368 47.239ZM287.246 15.312H299.726V11.312H287.246V15.312ZM297.865 14.0434L309.257 43.0354L312.979 41.5726L301.587 12.5806L297.865 14.0434ZM311.118 40.304H304.846V44.304H311.118V40.304ZM306.695 43.0671L318.663 14.0751L314.965 12.5489L302.997 41.5409L306.695 43.0671ZM316.814 15.312H328.398V11.312H316.814V15.312ZM326.55 12.5481L312.214 47.2361L315.91 48.7639L330.246 14.0759L326.55 12.5481ZM314.062 46H301.518V50H314.062V46ZM341.228 46.272L340.304 48.0456L340.319 48.0534L340.334 48.0609L341.228 46.272ZM334.124 39.872L332.416 40.9127L332.426 40.9285L332.436 40.944L334.124 39.872ZM334.06 21.376L332.352 20.3352L332.347 20.343L334.06 21.376ZM340.908 15.04L341.823 16.8183L341.834 16.813L341.844 16.8076L340.908 15.04ZM360.044 14.848L359.15 16.6369L359.16 16.6423L359.171 16.6476L360.044 14.848ZM366.764 20.928L368.465 19.8753L366.764 20.928ZM369.196 32.192L371.19 32.3454L369.196 32.192ZM369.068 33.728V35.728H370.894L371.06 33.9091L369.068 33.728ZM341.612 33.728H339.612V35.728H341.612V33.728ZM341.612 27.328V25.328H339.612V27.328H341.612ZM362.604 27.328L363.329 29.192L362.604 25.328V27.328ZM357.996 29.12L355.997 29.066L355.915 32.075L358.721 30.984L357.996 29.12ZM357.1 25.024L355.324 25.9446L355.338 25.9702L355.352 25.9953L357.1 25.024ZM354.54 22.336L353.511 24.051L353.526 24.0598L353.541 24.0684L354.54 22.336ZM346.924 22.336L345.925 20.6036L345.91 20.6122L345.895 20.621L346.924 22.336ZM344.428 25.088L346.203 26.0086L346.21 25.9956L346.217 25.9824L344.428 25.088ZM344.556 35.456L342.805 36.4222L342.817 36.445L342.831 36.4674L344.556 35.456ZM347.628 38.336L346.711 40.1132L346.734 40.1251L346.757 40.1363L347.628 38.336ZM356.716 38.592L357.447 40.4535L357.464 40.4469L357.481 40.44L356.716 38.592ZM360.364 36.288L361.806 34.9018L360.497 33.5403L359.062 34.7695L360.364 36.288ZM366.764 42.944L368.245 44.2876L369.5 42.9041L368.206 41.5578L366.764 42.944ZM360.62 47.168L361.34 49.0338L361.354 49.0284L361.368 49.0227L360.62 47.168ZM351.98 46.576C348.135 46.576 344.868 45.856 342.122 44.4831L340.334 48.0609C343.732 49.76 347.633 50.576 351.98 50.576V46.576ZM342.152 44.4984C339.411 43.07 337.317 41.1694 335.812 38.8L332.436 40.944C334.345 43.9506 336.986 46.3166 340.304 48.0456L342.152 44.4984ZM335.832 38.8313C334.374 36.4394 333.628 33.7116 333.628 30.592H329.628C329.628 34.3844 330.546 37.8433 332.416 40.9127L335.832 38.8313ZM333.628 30.592C333.628 27.4622 334.358 24.7543 335.773 22.409L332.347 20.343C330.519 23.3737 329.628 26.8098 329.628 30.592H333.628ZM335.768 22.4167C337.236 20.0068 339.242 18.1469 341.823 16.8183L339.993 13.2617C336.771 14.9197 334.212 17.2839 332.352 20.3353L335.768 22.4167ZM341.844 16.8076C344.428 15.4397 347.365 14.736 350.7 14.736V10.736C346.782 10.736 343.191 11.5683 339.972 13.2724L341.844 16.8076ZM350.7 14.736C353.829 14.736 356.634 15.3792 359.15 16.6369L360.938 13.0591C357.822 11.5008 354.397 10.736 350.7 10.736V14.736ZM359.171 16.6476C361.643 17.8457 363.597 19.6117 365.063 21.9807L368.465 19.8753C366.603 16.8683 364.077 14.5809 360.917 13.0484L359.171 16.6476ZM365.063 21.9807C366.493 24.2906 367.26 27.1718 367.26 30.72H371.26C371.26 26.5882 370.363 22.9413 368.465 19.8753L365.063 21.9807ZM367.26 30.72C367.26 31.0829 367.242 31.5206 367.202 32.0386L371.19 32.3454C371.236 31.7541 371.26 31.2105 371.26 30.72H367.26ZM367.202 32.0386C367.16 32.5856 367.118 33.0883 367.076 33.5469L371.06 33.9091C371.103 33.4291 371.147 32.9077 371.19 32.3454L367.202 32.0386ZM369.068 31.728H341.612V35.728H369.068V31.728ZM343.612 33.728V27.328H339.612V33.728H343.612ZM341.612 29.328H362.604V25.328H341.612V29.328ZM361.879 25.464L357.271 27.256L358.721 30.984L363.329 29.192L361.879 25.464ZM359.995 29.174C360.046 27.3086 359.694 25.5748 358.848 24.0527L355.352 25.9953C355.786 26.7772 356.032 27.7741 355.997 29.066L359.995 29.174ZM358.875 24.1034C358.105 22.617 356.984 21.4372 355.539 20.6036L353.541 24.0684C354.314 24.5148 354.901 25.127 355.324 25.9446L358.875 24.1034ZM355.569 20.621C354.143 19.7654 352.516 19.376 350.764 19.376V23.376C351.913 23.376 352.804 23.6266 353.511 24.051L355.569 20.621ZM350.764 19.376C349.01 19.376 347.376 19.766 345.925 20.6036L347.923 24.0684C348.69 23.626 349.617 23.376 350.764 23.376V19.376ZM345.895 20.621C344.478 21.4712 343.393 22.6849 342.639 24.1936L346.217 25.9824C346.657 25.1018 347.237 24.4808 347.953 24.051L345.895 20.621ZM342.652 24.1674C341.879 25.659 341.532 27.3535 341.532 29.184H345.532C345.532 27.8572 345.782 26.821 346.203 26.0086L342.652 24.1674ZM341.532 29.184V31.04H345.532V29.184H341.532ZM341.532 31.04C341.532 33.0147 341.928 34.8333 342.805 36.4222L346.307 34.4898C345.818 33.604 345.532 32.4786 345.532 31.04H341.532ZM342.831 36.4674C343.755 38.0441 345.065 39.2638 346.711 40.1132L348.545 36.5588C347.546 36.0428 346.808 35.3425 346.281 34.4446L342.831 36.4674ZM346.757 40.1363C348.41 40.9363 350.301 41.296 352.364 41.296V37.296C350.758 37.296 349.491 37.0157 348.499 36.5357L346.757 40.1363ZM352.364 41.296C354.243 41.296 355.957 41.0391 357.447 40.4535L355.985 36.7305C355.086 37.0836 353.898 37.296 352.364 37.296V41.296ZM357.481 40.44C358.944 39.8345 360.338 38.9446 361.666 37.8065L359.062 34.7695C358.001 35.6794 356.963 36.3255 355.951 36.744L357.481 40.44ZM358.922 37.6742L365.322 44.3302L368.206 41.5578L361.806 34.9018L358.922 37.6742ZM365.283 41.6004C363.833 43.1985 362.041 44.4381 359.872 45.3133L361.368 49.0227C364.063 47.9353 366.367 46.3588 368.245 44.2876L365.283 41.6004ZM359.9 45.3022C357.751 46.1314 355.127 46.576 351.98 46.576V50.576C355.489 50.576 358.625 50.0819 361.34 49.0338L359.9 45.3022ZM378.066 48H376.066V50H378.066V48ZM378.066 0.511997V-1.488H376.066V0.511997H378.066ZM390.227 0.511997H392.227V-1.488H390.227V0.511997ZM390.227 48V50H392.227V48H390.227ZM380.066 48V0.511997H376.066V48H380.066ZM378.066 2.512H390.227V-1.488H378.066V2.512ZM388.227 0.511997V48H392.227V0.511997H388.227ZM390.227 46H378.066V50H390.227V46ZM408.625 46.272L409.55 44.4988L408.625 46.272ZM401.649 39.936L399.941 40.9767L399.951 40.9925L399.961 41.008L401.649 39.936ZM401.649 21.312L399.961 20.24L399.954 20.2496L399.948 20.2593L401.649 21.312ZM408.625 15.04L409.53 16.8237L409.54 16.8185L409.55 16.8132L408.625 15.04ZM428.849 15.04L427.924 16.8132L427.939 16.8211L427.955 16.8289L428.849 15.04ZM435.825 21.312L434.124 22.3647L435.825 21.312ZM435.825 39.936L437.526 40.9887L437.533 40.9767L435.825 39.936ZM428.849 46.272L427.934 44.4934L427.924 44.4988L428.849 46.272ZM422.449 37.952L421.45 36.2196L421.435 36.2282L421.42 36.237L422.449 37.952ZM425.073 35.136L426.849 36.0548L426.856 36.0427L426.862 36.0304L425.073 35.136ZM425.073 26.176L423.297 27.0948L423.303 27.1077L423.31 27.1204L425.073 26.176ZM422.449 23.36L421.42 25.075L421.435 25.0838L421.45 25.0924L422.449 23.36ZM415.025 23.36L414.026 21.6276L414.011 21.6362L413.996 21.645L415.025 23.36ZM412.401 26.176L410.65 25.2098L410.644 25.2207L410.638 25.2316L412.401 26.176ZM412.401 35.136L410.612 36.0304L410.63 36.0667L410.65 36.1022L412.401 35.136ZM415.025 37.952L413.996 39.667L414.011 39.6758L414.026 39.6844L415.025 37.952ZM418.737 46.576C415.215 46.576 412.17 45.8657 409.55 44.4988L407.7 48.0452C410.968 49.7503 414.664 50.576 418.737 50.576V46.576ZM409.55 44.4988C406.904 43.1181 404.847 41.2423 403.337 38.864L399.961 41.008C401.864 44.0057 404.458 46.3539 407.7 48.0452L409.55 44.4988ZM403.357 38.8953C401.902 36.5073 401.153 33.7592 401.153 30.592H397.153C397.153 34.4221 398.068 37.9034 399.941 40.9767L403.357 38.8953ZM401.153 30.592C401.153 27.4243 401.902 24.7034 403.35 22.3647L399.948 20.2593C398.068 23.2966 397.153 26.7624 397.153 30.592H401.153ZM403.337 22.384C404.844 20.0108 406.894 18.1607 409.53 16.8237L407.72 13.2563C404.468 14.9059 401.867 17.2372 399.961 20.24L403.337 22.384ZM409.55 16.8132C412.17 15.4463 415.215 14.736 418.737 14.736V10.736C414.664 10.736 410.968 11.5617 407.7 13.2668L409.55 16.8132ZM418.737 14.736C422.259 14.736 425.304 15.4463 427.924 16.8132L429.774 13.2668C426.506 11.5617 422.81 10.736 418.737 10.736V14.736ZM427.955 16.8289C430.629 18.1661 432.667 20.0101 434.124 22.3647L437.526 20.2593C435.655 17.2379 433.042 14.9006 429.743 13.2511L427.955 16.8289ZM434.124 22.3647C435.572 24.7034 436.321 27.4243 436.321 30.592H440.321C440.321 26.7624 439.406 23.2966 437.526 20.2593L434.124 22.3647ZM436.321 30.592C436.321 33.7592 435.572 36.5073 434.117 38.8953L437.533 40.9767C439.406 37.9034 440.321 34.4221 440.321 30.592H436.321ZM434.124 38.8833C432.664 41.243 430.619 43.1128 427.934 44.4934L429.764 48.0506C433.052 46.3592 435.658 44.005 437.526 40.9887L434.124 38.8833ZM427.924 44.4988C425.304 45.8657 422.259 46.576 418.737 46.576V50.576C422.81 50.576 426.506 49.7503 429.774 48.0452L427.924 44.4988ZM418.737 40.912C420.459 40.912 422.061 40.5171 423.478 39.667L421.42 36.237C420.704 36.6669 419.831 36.912 418.737 36.912V40.912ZM423.448 39.6844C424.918 38.8364 426.05 37.6011 426.849 36.0548L423.297 34.2172C422.816 35.1456 422.198 35.7876 421.45 36.2196L423.448 39.6844ZM426.862 36.0304C427.668 34.4177 428.033 32.5839 428.033 30.592H424.033C424.033 32.0988 423.758 33.2943 423.284 34.2416L426.862 36.0304ZM428.033 30.592C428.033 28.6062 427.67 26.789 426.836 25.2316L423.31 27.1204C423.756 27.9524 424.033 29.0791 424.033 30.592H428.033ZM426.849 25.2572C426.05 23.7109 424.918 22.4756 423.448 21.6276L421.45 25.0924C422.198 25.5244 422.816 26.1664 423.297 27.0948L426.849 25.2572ZM423.478 21.645C422.061 20.7949 420.459 20.4 418.737 20.4V24.4C419.831 24.4 420.704 24.6451 421.42 25.075L423.478 21.645ZM418.737 20.4C417.045 20.4 415.459 20.8007 414.026 21.6276L416.024 25.0924C416.81 24.6393 417.698 24.4 418.737 24.4V20.4ZM413.996 21.645C412.587 22.4901 411.479 23.7064 410.65 25.2098L414.152 27.1422C414.688 26.171 415.329 25.5099 416.054 25.075L413.996 21.645ZM410.638 25.2316C409.804 26.789 409.441 28.6062 409.441 30.592H413.441C413.441 29.0791 413.718 27.9524 414.164 27.1204L410.638 25.2316ZM409.441 30.592C409.441 32.5839 409.806 34.4177 410.612 36.0304L414.19 34.2416C413.716 33.2943 413.441 32.0988 413.441 30.592H409.441ZM410.65 36.1022C411.479 37.6056 412.587 38.8219 413.996 39.667L416.054 36.237C415.329 35.8021 414.688 35.141 414.152 34.1698L410.65 36.1022ZM414.026 39.6844C415.459 40.5113 417.045 40.912 418.737 40.912V36.912C417.698 36.912 416.81 36.6727 416.024 36.2196L414.026 39.6844ZM461.426 46.656L460.357 48.3462L460.369 48.354L460.382 48.3617L461.426 46.656ZM456.626 40.768L454.771 41.5159L454.778 41.5341L454.786 41.5522L456.626 40.768ZM456.562 20.544L458.423 21.2763L458.427 21.266L456.562 20.544ZM461.17 14.656L460.126 12.9503L460.118 12.9551L460.11 12.96L461.17 14.656ZM477.554 14.976L476.546 16.7036L476.563 16.7134L476.58 16.723L477.554 14.976ZM483.698 21.184L481.95 22.1553L481.959 22.1719L481.968 22.1883L483.698 21.184ZM483.698 40.192L481.962 39.1997L481.956 39.2102L481.95 39.2207L483.698 40.192ZM477.554 46.4L476.58 44.653L476.568 44.66L477.554 46.4ZM447.154 60.416H445.154V62.416H447.154V60.416ZM447.154 13.312V11.312H445.154V13.312H447.154ZM458.738 13.312H460.738V11.312H458.738V13.312ZM458.738 19.2L460.738 19.2112V19.2H458.738ZM458.674 30.656L456.674 30.6448L456.674 30.7059L456.677 30.7669L458.674 30.656ZM459.314 42.176H461.314V42.1205L461.311 42.0651L459.314 42.176ZM459.314 60.416V62.416H461.314V60.416H459.314ZM470.066 37.952L469.067 36.2196L469.052 36.2282L469.037 36.237L470.066 37.952ZM472.69 35.136L470.939 34.1698L470.926 34.1933L470.914 34.2172L472.69 35.136ZM472.69 26.176L470.914 27.0948L470.926 27.1187L470.939 27.1422L472.69 26.176ZM470.066 23.36L469.037 25.075L469.052 25.0838L469.067 25.0924L470.066 23.36ZM462.706 23.36L461.707 21.6276L461.692 21.6362L461.677 21.645L462.706 23.36ZM460.082 26.176L458.331 25.2098L458.318 25.2333L458.306 25.2572L460.082 26.176ZM460.082 35.136L458.306 36.0548L458.318 36.0787L458.331 36.1022L460.082 35.136ZM462.706 37.952L461.677 39.667L461.692 39.6758L461.707 39.6844L462.706 37.952ZM468.978 46.576C466.328 46.576 464.189 46.0023 462.47 44.9503L460.382 48.3617C462.845 49.8697 465.74 50.576 468.978 50.576V46.576ZM462.495 44.9658C460.795 43.8901 459.44 42.2687 458.466 39.9838L454.786 41.5522C456.031 44.4726 457.876 46.7765 460.357 48.3462L462.495 44.9658ZM458.481 40.0201C457.542 37.6921 457.026 34.5984 457.026 30.656H453.026C453.026 34.9056 453.577 38.5533 454.771 41.5159L458.481 40.0201ZM457.026 30.656C457.026 26.6588 457.524 23.562 458.423 21.2762L454.701 19.8117C453.552 22.7313 453.026 26.3758 453.026 30.656H457.026ZM458.427 21.266C459.323 18.951 460.61 17.3647 462.23 16.352L460.11 12.96C457.634 14.5073 455.849 16.8464 454.697 19.822L458.427 21.266ZM462.214 16.3617C463.916 15.3198 466.133 14.736 468.978 14.736V10.736C465.593 10.736 462.605 11.4322 460.126 12.9503L462.214 16.3617ZM468.978 14.736C471.805 14.736 474.312 15.4004 476.546 16.7036L478.562 13.2484C475.676 11.565 472.465 10.736 468.978 10.736V14.736ZM476.58 16.723C478.847 17.9862 480.631 19.782 481.95 22.1553L485.446 20.2127C483.778 17.21 481.467 14.8671 478.528 13.229L476.58 16.723ZM481.968 22.1883C483.295 24.4729 484.002 27.2689 484.002 30.656H488.002C488.002 26.7044 487.173 23.1858 485.428 20.1797L481.968 22.1883ZM484.002 30.656C484.002 34.042 483.295 36.8655 481.962 39.1997L485.434 41.1843C487.173 38.1425 488.002 34.6087 488.002 30.656H484.002ZM481.95 39.2207C480.631 41.594 478.847 43.3898 476.58 44.653L478.528 48.147C481.467 46.5089 483.778 44.166 485.446 41.1633L481.95 39.2207ZM476.568 44.66C474.331 45.9278 471.816 46.576 468.978 46.576V50.576C472.455 50.576 475.657 49.7735 478.54 48.14L476.568 44.66ZM449.154 60.416V13.312H445.154V60.416H449.154ZM447.154 15.312H458.738V11.312H447.154V15.312ZM456.738 13.312V19.2H460.738V13.312H456.738ZM456.738 19.1888L456.674 30.6448L460.674 30.6672L460.738 19.2112L456.738 19.1888ZM456.677 30.7669L457.317 42.2869L461.311 42.0651L460.671 30.5451L456.677 30.7669ZM457.314 42.176V60.416H461.314V42.176H457.314ZM459.314 58.416H447.154V62.416H459.314V58.416ZM466.418 40.912C468.109 40.912 469.688 40.5114 471.095 39.667L469.037 36.237C468.311 36.6726 467.457 36.912 466.418 36.912V40.912ZM471.065 39.6844C472.535 38.8364 473.667 37.6011 474.466 36.0548L470.914 34.2172C470.433 35.1456 469.815 35.7876 469.067 36.2196L471.065 39.6844ZM474.441 36.1022C475.322 34.5065 475.714 32.6639 475.714 30.656H471.714C471.714 32.1468 471.424 33.2909 470.939 34.1698L474.441 36.1022ZM475.714 30.656C475.714 28.6481 475.322 26.8055 474.441 25.2098L470.939 27.1422C471.424 28.0211 471.714 29.1652 471.714 30.656H475.714ZM474.466 25.2572C473.667 23.7109 472.535 22.4756 471.065 21.6276L469.067 25.0924C469.815 25.5244 470.433 26.1664 470.914 27.0948L474.466 25.2572ZM471.095 21.645C469.688 20.8006 468.109 20.4 466.418 20.4V24.4C467.457 24.4 468.311 24.6394 469.037 25.075L471.095 21.645ZM466.418 20.4C464.726 20.4 463.14 20.8007 461.707 21.6276L463.705 25.0924C464.491 24.6393 465.38 24.4 466.418 24.4V20.4ZM461.677 21.645C460.268 22.4901 459.16 23.7064 458.331 25.2098L461.833 27.1422C462.369 26.171 463.01 25.5099 463.735 25.075L461.677 21.645ZM458.306 25.2572C457.486 26.8419 457.122 28.6669 457.122 30.656H461.122C461.122 29.1464 461.398 27.9848 461.858 27.0948L458.306 25.2572ZM457.122 30.656C457.122 32.6451 457.486 34.4701 458.306 36.0548L461.858 34.2172C461.398 33.3272 461.122 32.1656 461.122 30.656H457.122ZM458.331 36.1022C459.16 37.6056 460.268 38.8219 461.677 39.667L463.735 36.237C463.01 35.8021 462.369 35.141 461.833 34.1698L458.331 36.1022ZM461.707 39.6844C463.14 40.5113 464.726 40.912 466.418 40.912V36.912C465.38 36.912 464.491 36.6727 463.705 36.2196L461.707 39.6844ZM502.278 46.272L501.354 48.0456L501.369 48.0534L501.384 48.0609L502.278 46.272ZM495.174 39.872L493.466 40.9127L493.476 40.9285L493.486 40.944L495.174 39.872ZM495.11 21.376L493.402 20.3352L493.397 20.343L495.11 21.376ZM501.958 15.04L502.873 16.8183L502.884 16.813L502.894 16.8076L501.958 15.04ZM521.094 14.848L520.2 16.6369L520.211 16.6423L520.221 16.6476L521.094 14.848ZM527.814 20.928L529.515 19.8753L527.814 20.928ZM530.246 32.192L532.24 32.3454L530.246 32.192ZM530.118 33.728V35.728H531.944L532.11 33.9091L530.118 33.728ZM502.662 33.728H500.662V35.728H502.662V33.728ZM502.662 27.328V25.328H500.662V27.328H502.662ZM523.654 27.328L524.379 29.192L523.654 25.328V27.328ZM519.046 29.12L517.047 29.066L516.965 32.075L519.771 30.984L519.046 29.12ZM518.15 25.024L516.375 25.9446L516.388 25.9702L516.402 25.9953L518.15 25.024ZM515.59 22.336L514.561 24.051L514.576 24.0598L514.591 24.0684L515.59 22.336ZM507.974 22.336L506.975 20.6036L506.96 20.6122L506.945 20.621L507.974 22.336ZM505.478 25.088L507.254 26.0086L507.26 25.9956L507.267 25.9824L505.478 25.088ZM505.606 35.456L503.855 36.4222L503.867 36.445L503.881 36.4674L505.606 35.456ZM508.678 38.336L507.761 40.1132L507.784 40.1251L507.807 40.1363L508.678 38.336ZM517.766 38.592L518.497 40.4535L518.514 40.4469L518.531 40.44L517.766 38.592ZM521.414 36.288L522.856 34.9018L521.547 33.5403L520.112 34.7695L521.414 36.288ZM527.814 42.944L529.295 44.2876L530.55 42.9041L529.256 41.5578L527.814 42.944ZM521.67 47.168L522.39 49.0338L522.404 49.0284L522.418 49.0227L521.67 47.168ZM513.03 46.576C509.185 46.576 505.918 45.856 503.172 44.4831L501.384 48.0609C504.782 49.76 508.683 50.576 513.03 50.576V46.576ZM503.202 44.4984C500.461 43.07 498.367 41.1694 496.862 38.8L493.486 40.944C495.395 43.9506 498.036 46.3166 501.354 48.0456L503.202 44.4984ZM496.882 38.8313C495.424 36.4394 494.678 33.7116 494.678 30.592H490.678C490.678 34.3844 491.596 37.8433 493.466 40.9127L496.882 38.8313ZM494.678 30.592C494.678 27.4622 495.408 24.7543 496.823 22.409L493.397 20.343C491.569 23.3737 490.678 26.8098 490.678 30.592H494.678ZM496.818 22.4167C498.286 20.0068 500.292 18.1469 502.873 16.8183L501.043 13.2617C497.821 14.9197 495.262 17.2839 493.402 20.3353L496.818 22.4167ZM502.894 16.8076C505.478 15.4397 508.415 14.736 511.75 14.736V10.736C507.832 10.736 504.241 11.5683 501.022 13.2724L502.894 16.8076ZM511.75 14.736C514.88 14.736 517.684 15.3792 520.2 16.6369L521.988 13.0591C518.872 11.5008 515.447 10.736 511.75 10.736V14.736ZM520.221 16.6476C522.693 17.8457 524.647 19.6117 526.113 21.9807L529.515 19.8753C527.653 16.8683 525.127 14.5809 521.967 13.0484L520.221 16.6476ZM526.113 21.9807C527.543 24.2906 528.31 27.1718 528.31 30.72H532.31C532.31 26.5882 531.413 22.9413 529.515 19.8753L526.113 21.9807ZM528.31 30.72C528.31 31.0829 528.292 31.5206 528.252 32.0386L532.24 32.3454C532.286 31.7541 532.31 31.2105 532.31 30.72H528.31ZM528.252 32.0386C528.21 32.5856 528.168 33.0883 528.126 33.5469L532.11 33.9091C532.153 33.4291 532.197 32.9077 532.24 32.3454L528.252 32.0386ZM530.118 31.728H502.662V35.728H530.118V31.728ZM504.662 33.728V27.328H500.662V33.728H504.662ZM502.662 29.328H523.654V25.328H502.662V29.328ZM522.929 25.464L518.321 27.256L519.771 30.984L524.379 29.192L522.929 25.464ZM521.045 29.174C521.096 27.3086 520.744 25.5748 519.898 24.0527L516.402 25.9953C516.836 26.7772 517.082 27.7741 517.047 29.066L521.045 29.174ZM519.926 24.1034C519.155 22.617 518.034 21.4372 516.589 20.6036L514.591 24.0684C515.364 24.5148 515.951 25.127 516.375 25.9446L519.926 24.1034ZM516.619 20.621C515.193 19.7654 513.566 19.376 511.814 19.376V23.376C512.963 23.376 513.854 23.6266 514.561 24.051L516.619 20.621ZM511.814 19.376C510.06 19.376 508.426 19.766 506.975 20.6036L508.973 24.0684C509.74 23.626 510.667 23.376 511.814 23.376V19.376ZM506.945 20.621C505.528 21.4712 504.444 22.6849 503.689 24.1936L507.267 25.9824C507.707 25.1018 508.287 24.4808 509.003 24.051L506.945 20.621ZM503.703 24.1674C502.929 25.659 502.582 27.3535 502.582 29.184H506.582C506.582 27.8572 506.832 26.821 507.254 26.0086L503.703 24.1674ZM502.582 29.184V31.04H506.582V29.184H502.582ZM502.582 31.04C502.582 33.0147 502.978 34.8333 503.855 36.4222L507.357 34.4898C506.868 33.604 506.582 32.4786 506.582 31.04H502.582ZM503.881 36.4674C504.805 38.0441 506.115 39.2638 507.761 40.1132L509.595 36.5588C508.596 36.0428 507.858 35.3425 507.331 34.4446L503.881 36.4674ZM507.807 40.1363C509.46 40.9363 511.351 41.296 513.414 41.296V37.296C511.808 37.296 510.541 37.0157 509.549 36.5357L507.807 40.1363ZM513.414 41.296C515.293 41.296 517.007 41.0391 518.497 40.4535L517.035 36.7305C516.136 37.0836 514.948 37.296 513.414 37.296V41.296ZM518.531 40.44C519.994 39.8345 521.388 38.9446 522.716 37.8065L520.112 34.7695C519.051 35.6794 518.013 36.3255 517.001 36.744L518.531 40.44ZM519.972 37.6742L526.372 44.3302L529.256 41.5578L522.856 34.9018L519.972 37.6742ZM526.333 41.6004C524.883 43.1985 523.091 44.4381 520.922 45.3133L522.418 49.0227C525.113 47.9353 527.417 46.3588 529.295 44.2876L526.333 41.6004ZM520.95 45.3022C518.801 46.1314 516.177 46.576 513.03 46.576V50.576C516.539 50.576 519.675 50.0819 522.39 49.0338L520.95 45.3022ZM539.117 48H537.117V50H539.117V48ZM539.117 13.312V11.312H537.117V13.312H539.117ZM550.701 13.312H552.701V11.312H550.701V13.312ZM550.701 23.424L548.986 24.453L552.701 30.6446V23.424H550.701ZM548.973 20.544L547.111 19.8117L546.751 20.7284L547.258 21.573L548.973 20.544ZM553.965 14.72L554.936 16.4683L554.948 16.4615L554.96 16.4545L553.965 14.72ZM562.349 12.736H564.349V10.736H562.349V12.736ZM562.349 23.68L562.044 25.6567L564.349 26.0112V23.68H562.349ZM560.877 23.552L560.656 25.5398L560.766 25.552H560.877V23.552ZM553.581 25.536L554.886 27.0515L554.898 27.0413L554.909 27.0308L553.581 25.536ZM551.277 48V50H553.277V48H551.277ZM541.117 48V13.312H537.117V48H541.117ZM539.117 15.312H550.701V11.312H539.117V15.312ZM548.701 13.312V23.424H552.701V13.312H548.701ZM552.416 22.395L550.688 19.515L547.258 21.573L548.986 24.453L552.416 22.395ZM550.834 21.2762C551.699 19.0767 553.063 17.5086 554.936 16.4683L552.993 12.9717C550.258 14.4914 548.294 16.8059 547.111 19.8117L550.834 21.2762ZM554.96 16.4545C556.897 15.3425 559.331 14.736 562.349 14.736V10.736C558.796 10.736 555.64 11.4522 552.969 12.9855L554.96 16.4545ZM560.349 12.736V23.68H564.349V12.736H560.349ZM562.653 21.7033C562.027 21.607 561.431 21.552 560.877 21.552V25.552C561.175 25.552 561.561 25.5824 562.044 25.6567L562.653 21.7033ZM561.097 21.5642C560.626 21.5119 560.125 21.488 559.596 21.488V25.488C560.007 25.488 560.359 25.5068 560.656 25.5398L561.097 21.5642ZM559.596 21.488C556.737 21.488 554.225 22.2868 552.252 24.0412L554.909 27.0308C556.008 26.0545 557.507 25.488 559.596 25.488V21.488ZM552.275 24.0205C550.117 25.8792 549.277 28.7443 549.277 32.064H553.277C553.277 29.3251 553.972 27.8381 554.886 27.0515L552.275 24.0205ZM549.277 32.064V48H553.277V32.064H549.277ZM551.277 46H539.117V50H551.277V46Z" fill="url(#paint0_linear_31_2651)"/>
<defs>
<linearGradient id="paint0_linear_31_2651" x1="-0.999997" y1="25" x2="564" y2="25" gradientUnits="userSpaceOnUse">
<stop stop-color="#BFDBFE"/>
<stop offset="1" stop-color="#475569"/>
</linearGradient>
</defs>
</svg>
